<svg width="80" height="80" viewBox="0 0 80 80" fill="none" xmlns="http://www.w3.org/2000/svg">
<path d="M40.5 36C41.8701 36 43.149 35.4066 43.8378 34.4511C44.1706 33.9895 43.9749 33.3982 43.4007 33.1306C42.8266 32.8629 42.0913 33.0202 41.7584 33.482C41.4982 33.8431 41.0159 34.0674 40.5 34.0674C39.9841 34.0674 39.5019 33.8431 39.2416 33.482C38.9088 33.0201 38.1737 32.8628 37.5993 33.1306C37.0252 33.3982 36.8294 33.9895 37.1622 34.4511C37.851 35.4066 39.1299 36 40.5 36Z" fill="black"/>
<path d="M35 29C35.5523 29 36 28.5675 36 28.0336V26.9664C36 26.4325 35.5523 26 35 26C34.4477 26 34 26.4325 34 26.9664V28.0336C34 28.5675 34.4477 29 35 29Z" fill="black"/>
<path d="M45 29C45.5523 29 46 28.5675 46 28.0336V26.9664C46 26.4325 45.5523 26 45 26C44.4477 26 44 26.4325 44 26.9664V28.0336C44 28.5675 44.4477 29 45 29Z" fill="black"/>
<path fill-rule="evenodd" clip-rule="evenodd" d="M73.8225 62.1224H72.2272V50.3498V50.3497C72.2271 46.8485 69.3763 44 65.8725 44H59.395C58.0339 44 56.9266 45.1064 56.9266 46.4664V49.1778H55.2645C54.6167 49.1778 54.0915 49.7024 54.0915 50.3498C54.0915 50.9973 54.6167 51.5219 55.2645 51.5219H69.8813V62.2857C68.3825 62.7491 67.2904 64.1468 67.2904 65.7948V77.5778C67.2904 77.5929 67.2914 77.6076 67.2924 77.6224C67.2932 77.6335 67.2939 77.6446 67.2943 77.6559H24.173C23.5252 77.6559 23 78.1805 23 78.828C23 79.4754 23.5252 80 24.173 80H76.3247C78.3513 80 80 78.3526 80 76.3276V68.2952C80 64.8914 77.2287 62.1224 73.8225 62.1224ZM59.2725 46.4664C59.2725 46.3989 59.3276 46.3441 59.395 46.3441H65.8725C67.6749 46.3441 69.2031 47.5391 69.7059 49.1778H59.2725V46.4664ZM76.3248 77.6559C77.0578 77.6559 77.6541 77.0599 77.6541 76.3276V68.2952C77.6541 66.184 75.9352 64.4665 73.8225 64.4665H70.9658C70.2327 64.4665 69.6364 65.0624 69.6364 65.7948V67.3002H73.6451C74.2929 67.3002 74.8181 67.8248 74.8181 68.4723C74.8181 69.1197 74.2929 69.6443 73.6451 69.6443H69.6364V72.478H73.6451C74.2929 72.478 74.8181 73.0026 74.8181 73.65C74.8181 74.2975 74.2929 74.8221 73.6451 74.8221H69.6364V77.5778C69.6364 77.6208 69.6715 77.6559 69.7146 77.6559H69.7589H76.3248Z" fill="black"/>
<path fill-rule="evenodd" clip-rule="evenodd" d="M50.3507 51.5259C50.9947 51.5259 51.5168 51.0014 51.5168 50.3541C51.5168 49.7067 50.9947 49.1822 50.3507 49.1822H48.6967V43.1511C51.5574 40.793 53.4779 37.3241 53.7996 33.4062H55.258C57.3214 33.4062 59 31.7194 59 29.6459V24.4688C59 23.66 58.7438 22.9106 58.3097 22.2966C58.736 21.8527 59 21.2502 59 20.5859V19.2917C59 17.2181 57.3214 15.5314 55.258 15.5314H55.1363V10.2319C55.1363 6.01719 51.7244 2.58844 47.5306 2.58844H44.189V2.42188C44.189 1.08641 43.1079 0 41.779 0H37.8271C36.4982 0 35.4172 1.08641 35.4172 2.42188V2.58828H32.0757C27.8819 2.58828 24.4699 6.01703 24.4699 10.2317L24.47 15.5312H24.3484C22.2852 15.5312 20.6066 17.2181 20.6066 19.2916V20.5858C20.6066 21.25 20.8705 21.8525 21.2969 22.2964C20.863 22.9105 20.6066 23.6597 20.6066 24.4684V29.6456C20.6066 31.7192 22.2852 33.4061 24.3484 33.4061H25.8072C26.129 37.3236 28.0492 40.7923 30.9096 43.1503V49.1819H22.9388V46.4709C22.9388 45.1111 21.838 44.0048 20.4849 44.0048H14.0451C10.5616 44.0048 7.72759 46.8528 7.72744 50.3536V50.3537V62.125H6.14153C2.75513 62.125 0 64.8938 0 68.2969V76.3281C0 78.3528 1.63909 80 3.65382 80H19.4405C20.0845 80 20.6066 79.4755 20.6066 78.8281C20.6066 78.1808 20.0845 77.6562 19.4405 77.6562H12.6315C12.6318 77.645 12.6326 77.6339 12.6333 77.6227L12.6346 77.6027L12.6351 77.591L12.6354 77.5781V65.7969C12.6354 64.1492 11.5498 62.7516 10.0597 62.2883V51.5259H50.3507ZM56.6679 29.6458C56.6679 30.4269 56.0356 31.0623 55.2582 31.0623H53.8484V23.0519H55.2613C56.0371 23.0536 56.6678 23.6883 56.6678 24.4684V29.6458H56.6679ZM52.8042 10.2317C52.8042 7.30953 50.4386 4.93203 47.5307 4.93203H44.1893V15.5312H47.6526V14.1147C47.6526 13.4673 48.1747 12.9428 48.8188 12.9428C49.4628 12.9428 49.9849 13.4673 49.9849 14.1147V15.5312H52.8042V10.2317ZM37.7495 2.42188C37.7495 2.37891 37.7844 2.34375 37.8273 2.34375H41.7792C41.8221 2.34375 41.8569 2.37891 41.8569 2.42188V15.5312H37.7495V2.42188ZM32.076 4.93203C29.168 4.93203 26.8024 7.30953 26.8024 10.2317L26.8027 15.5312H29.6219V14.1147C29.6219 13.4673 30.144 12.9428 30.788 12.9428C31.432 12.9428 31.9541 13.4673 31.9541 14.1147V15.5312H35.4175V4.93203H32.076ZM22.9388 19.2917C22.9388 18.5106 23.5712 17.8752 24.3484 17.8752H55.2582C56.0356 17.8752 56.6679 18.5106 56.6679 19.2917V20.5859C56.6679 20.6534 56.6132 20.7083 56.5462 20.7083H23.0606C22.9934 20.7083 22.9388 20.6533 22.9388 20.5859V19.2917ZM22.9388 24.4688V29.6458C22.9388 30.427 23.5712 31.0627 24.3484 31.0628H25.7583L25.7582 23.0522H24.3484C23.5712 23.0522 22.9388 23.6877 22.9388 24.4688ZM28.0906 32.235L28.0904 23.0522H51.5162V32.235C51.5162 38.7253 46.2619 44.0056 39.8033 44.0056C33.3447 44.0056 28.0906 38.7253 28.0906 32.235ZM33.242 44.7112L33.2418 44.7111H33.242V44.7112ZM33.242 44.7112C35.2016 45.7561 37.4348 46.3494 39.8035 46.3494C42.1721 46.3494 44.4051 45.7562 46.3646 44.7114V49.1822H33.242V44.7112ZM14.0451 46.3489H20.4849C20.552 46.3489 20.6066 46.4039 20.6066 46.4713V49.1822H10.2341C10.734 47.5438 12.2532 46.3489 14.0451 46.3489ZM6.318 67.302H10.3033V65.7969C10.3033 65.0645 9.71045 64.4688 8.98171 64.4688H6.14153C4.04112 64.4688 2.33222 66.1859 2.33222 68.2969V76.3281C2.33222 77.0603 2.92508 77.6562 3.65382 77.6562H10.1816H10.2256C10.2685 77.6562 10.3033 77.6211 10.3033 77.5781V74.8228H6.318C5.67399 74.8228 5.15188 74.2983 5.15188 73.6509C5.15188 73.0036 5.67399 72.4791 6.318 72.4791H10.3033V69.6458H6.318C5.67399 69.6458 5.15188 69.1212 5.15188 68.4739C5.15188 67.8266 5.67399 67.302 6.318 67.302Z" fill="black"/>
</svg>
