<svg width="233" height="48" viewBox="0 0 233 48" fill="none" xmlns="http://www.w3.org/2000/svg">
<path d="M14.5162 33.329C12.0001 30.9677 10.4904 27.7161 10.4904 23.9999C10.4904 20.2838 11.9614 17.0322 14.3614 14.6709C16.4517 12.5806 16.4517 9.32896 14.3614 7.23864C12.271 5.14832 9.01944 5.14832 6.92911 7.23864C2.78718 11.5354 0.116211 17.458 0.116211 23.9999C0.116211 30.5419 2.78718 36.4644 7.08395 40.7612C9.17428 42.8515 12.4259 42.8515 14.5162 40.7612C16.413 38.6709 16.413 35.4193 14.5162 33.329Z" fill="#FFD85F"/>
<path d="M14.5166 14.6709C16.8779 12.1547 20.1682 10.6838 23.8456 10.6838C27.5231 10.6838 30.8134 12.1547 33.1747 14.5547C35.265 16.6451 38.5166 16.6451 40.6069 14.5547C42.6973 12.4644 42.6973 9.2128 40.6069 7.12247C36.3102 2.98054 30.3876 0.30957 23.8456 0.30957C17.3037 0.30957 11.3811 2.98054 7.08434 7.27731C4.99402 9.36763 4.99402 12.6192 7.08434 14.7096C9.17467 16.5676 12.4263 16.5676 14.5166 14.6709Z" fill="#3BB4E7"/>
<path d="M33.1747 33.3288C30.8134 35.8449 27.5231 37.3159 23.8456 37.3159C20.1682 37.3159 16.8779 35.8449 14.5166 33.4449C12.4263 31.3546 9.17467 31.3546 7.08434 33.4449C4.99402 35.5353 4.99402 38.7869 7.08434 40.8772C11.3811 45.0191 17.3037 47.6901 23.8456 47.6901C30.3876 47.6901 36.3102 45.0191 40.6069 40.7224C42.6973 38.632 42.6973 35.3804 40.6069 33.2901C38.5166 31.432 35.265 31.432 33.1747 33.3288Z" fill="#ED5C68"/>
<circle cx="10.8004" cy="10.9547" r="5.1871" fill="#308BC5"/>
<circle cx="10.8004" cy="37.045" r="5.1871" fill="#D5465F"/>
<path fill-rule="evenodd" clip-rule="evenodd" d="M199.006 13.316H195.29V13.3547H195.174V12.6193C195.174 10.5289 196.064 8.90314 198.271 8.90314H199.742C200.787 8.90314 201.522 8.16765 201.522 7.12249V5.92249C201.522 5.03217 200.787 4.14185 199.742 4.14185H196.916C192.309 4.56765 189.793 8.12894 189.793 12.5806V32.9031C189.793 33.9483 190.529 34.6838 191.574 34.6838H193.509C194.555 34.6838 195.29 33.9483 195.29 32.9031V18.0773H199.006C200.051 18.0773 200.787 17.3418 200.787 16.2967V15.0967C200.787 14.2064 200.051 13.316 199.006 13.316ZM226.877 32.9031C226.877 33.9483 227.613 34.6838 228.658 34.6838H230.593C231.638 34.6838 232.374 33.9483 232.374 32.9031V9.59991C232.374 8.55475 231.638 7.81927 230.593 7.81927H228.658C227.613 7.81927 226.877 8.55475 226.877 9.59991V32.9031ZM66.4226 29.1418C65.5773 28.2701 65.1694 27.8494 63.9093 28.8773C63.019 29.6515 61.6642 30.0773 60.5029 29.8451C53.2255 29.8451 52.9545 19.316 58.8771 17.8451C60.6577 17.4193 62.7481 17.9999 64.219 19.0451C64.9545 19.6644 65.419 19.1999 65.9997 18.6193C66.1977 18.5202 66.3166 18.3737 66.4576 18.1999C66.5371 18.102 66.6235 17.9954 66.7352 17.8838C66.8188 17.7878 66.9004 17.6957 66.9791 17.607C67.8839 16.5869 68.3981 16.0071 67.0448 14.9031C66.3093 14.3225 65.419 13.8967 64.5287 13.587C63.2126 13.1612 62.0126 12.8515 60.5416 12.8515C57.7158 12.6967 55.0448 13.587 52.8384 15.3677C50.4384 17.3031 49.2771 20.1289 49.1222 23.2257C48.8126 29.9225 53.7287 35.1096 60.5416 35.1096C63.6384 35.1096 65.7287 34.2193 68.09 32.2838C69.0647 31.5365 67.9668 30.571 67.2456 29.9368C67.1075 29.8154 66.9833 29.7061 66.89 29.6128C66.7179 29.4463 66.5641 29.2877 66.4226 29.1418ZM218.438 32.0128C216.348 33.9483 214.296 34.9935 211.316 34.9935C205.238 34.9935 202.413 29.9612 202.413 24.4644V14.9806C202.413 13.9354 203.148 13.1999 204.193 13.1999H206.129C207.174 13.1999 207.909 13.9354 207.909 14.9806V24.4644C207.909 27.5612 209.535 29.9612 212.942 29.9612C216.193 29.9612 218.284 27.1354 218.284 24.1935V14.9806C218.284 13.9354 219.019 13.1999 220.064 13.1999H222C223.045 13.1999 223.78 13.9354 223.78 14.9806V32.9031C223.78 33.9483 223.045 34.6838 222 34.6838H220.374C219.329 34.6838 218.748 33.7935 218.593 32.9031L218.438 32.0128ZM181.935 13.316H185.922C186.967 13.316 187.703 14.0515 187.703 15.0967V16.2967C187.703 17.3418 186.967 18.0773 185.922 18.0773H181.78V27.0967C181.78 28.8773 182.671 29.7677 184.451 29.7677H185.342C186.387 29.7677 187.122 30.5031 187.122 31.5483V32.8644C187.122 33.9096 186.387 34.6451 185.342 34.6451H182.825C178.374 34.3354 176.438 31.5483 176.438 27.0967V9.59991C176.438 8.55475 177.174 7.81927 178.219 7.81927H180.155C181.2 7.81927 181.935 8.55475 181.935 9.59991V13.316ZM122.477 13.316H126.464C127.509 13.316 128.245 14.0515 128.245 15.0967V16.2967C128.245 17.3418 127.509 18.0773 126.464 18.0773H122.322V27.0967C122.322 28.8773 123.213 29.9225 124.993 29.9225H125.884C126.929 29.9225 127.664 30.658 127.664 31.7031V32.9031C127.664 33.9483 126.929 34.6838 125.884 34.6838H124.684C119.806 34.6838 116.98 32.5935 116.98 27.1354V9.63862C116.98 8.59346 117.716 7.85797 118.761 7.85797H120.696C121.742 7.85797 122.477 8.59346 122.477 9.63862V13.316ZM98.1674 15.8322C100.103 13.8967 102.309 12.8515 104.98 12.8515C111.058 12.8515 114.193 17.7289 114.193 23.3806V32.9031C114.193 33.9483 113.458 34.6838 112.413 34.6838H110.477C109.432 34.6838 108.696 33.9483 108.696 32.9031V23.4193C108.696 20.3225 107.071 17.9225 103.664 17.9225C100.413 17.9225 98.3222 20.5935 98.3222 23.6902V32.9031C98.3222 33.9483 97.5868 34.6838 96.5416 34.6838H94.6061C93.561 34.6838 92.8255 33.9483 92.8255 32.9031V14.9418C92.8255 13.8967 93.561 13.1612 94.6061 13.1612H96.2319C97.2771 13.1612 97.8577 14.0515 98.0126 14.9418L98.1674 15.8322ZM164.593 12.8515C161.922 12.8515 159.716 13.8967 157.78 15.8322L157.625 14.9418C157.471 14.0515 156.89 13.1612 155.845 13.1612H154.219C153.174 13.1612 152.438 13.8967 152.438 14.9418V32.9031C152.438 33.9483 153.174 34.6838 154.219 34.6838H156.155C157.2 34.6838 157.935 33.9483 157.935 32.9031V23.6902C157.935 20.5935 160.025 17.9225 163.277 17.9225C166.684 17.9225 168.309 20.3225 168.309 23.4193V32.9031C168.309 33.9483 169.045 34.6838 170.09 34.6838H172.025C173.071 34.6838 173.806 33.9483 173.806 32.9031V23.3806C173.806 17.7289 170.671 12.8515 164.593 12.8515ZM79.8964 12.7354C73.3545 12.7354 68.7868 17.4967 68.7868 23.9999C68.7868 30.5031 73.3932 35.2644 79.8964 35.2644C86.5545 35.2644 91.161 30.658 91.161 23.9999C91.161 17.458 86.4384 12.7354 79.8964 12.7354ZM134.231 26.0902C134.736 28.9617 137.662 30.2322 140.438 30.2322C141.755 30.2322 143.264 29.9225 144.425 29.3418C144.503 29.2644 144.609 29.2257 144.716 29.187C144.822 29.1483 144.929 29.1096 145.006 29.0322C145.742 28.6064 146.322 28.4515 146.942 29.0322L147.987 30.0773L148.877 30.9677C149.732 32.1199 149.231 32.4156 148.264 32.9856L148.142 33.058C145.935 34.5289 143.109 35.2644 140.438 35.2644C133.316 35.2644 128.555 30.9677 128.555 23.8451C128.555 17.0322 133.316 12.5806 139.974 12.5806C146.942 12.5806 150.813 16.5677 150.967 23.5741C150.967 23.7138 150.968 23.8463 150.969 23.9722V23.974C150.979 25.5907 150.982 26.0902 149.187 26.0902H134.231ZM79.8964 17.7677C83.3029 17.7677 85.5481 20.7483 85.5481 23.9999C85.5481 27.4064 83.4577 30.0773 79.8964 30.0773C76.3352 30.0773 74.2448 27.4064 74.2448 23.9999C74.2448 20.5935 76.49 17.7677 79.8964 17.7677ZM145.432 21.3289H134.322C135.096 18.8128 137.303 17.458 140.09 17.458C142.761 17.458 145.006 18.5031 145.432 21.3289Z" fill="#2A3039"/>
</svg>
