<svg width="80" height="80" viewBox="0 0 80 80" fill="none" xmlns="http://www.w3.org/2000/svg">
<path fill-rule="evenodd" clip-rule="evenodd" d="M10.9186 62.6715C11.8738 62.1466 12.9504 61.8671 14.0704 61.8671C15.8234 61.8671 17.4713 62.5494 18.7109 63.7891C19.9506 65.0281 20.6329 66.6766 20.6329 68.429C20.6329 70.1819 19.9506 71.8304 18.7109 73.0695C17.4713 74.3091 15.8234 74.9921 14.0704 74.9921C12.3175 74.9921 10.6696 74.3091 9.43054 73.0695C8.19092 71.8304 7.50793 70.1825 7.50793 68.4296C7.50793 67.1143 7.89246 65.8582 8.60779 64.7894C3.05176 57.7582 0 48.9874 0 40C0 29.3158 4.16077 19.2706 11.7157 11.7157C19.2706 4.16077 29.3158 0 40 0C42.6794 0 45.3583 0.266724 47.9626 0.792847C48.8086 0.964355 49.3555 1.78833 49.1846 2.63428C49.0137 3.48022 48.1885 4.0271 47.3438 3.8562C44.9426 3.37097 42.4719 3.125 40 3.125C19.6667 3.125 3.125 19.6667 3.125 40C3.125 48.2086 5.88684 56.2213 10.9186 62.6715ZM14.0704 71.8671C14.9884 71.8671 15.8521 71.5094 16.5009 70.86C17.1503 70.2106 17.5079 69.3475 17.5079 68.4296C17.5079 67.511 17.1503 66.6479 16.5009 65.9985C15.8514 65.3497 14.9884 64.9921 14.0704 64.9921C13.1525 64.9921 12.2888 65.3491 11.64 65.9985C10.9906 66.6479 10.6329 67.511 10.6329 68.4296C10.6329 69.3475 10.9906 70.2106 11.64 70.86C12.2894 71.5094 13.1525 71.8671 14.0704 71.8671Z" fill="black"/>
<path fill-rule="evenodd" clip-rule="evenodd" d="M70.5701 6.92993C72.8168 9.17664 73.0897 12.6605 71.3911 15.2087C76.9477 22.2406 80.0001 31.012 80.0001 40C80.0001 50.6842 75.8393 60.7294 68.2844 68.2843C60.7294 75.8392 50.6843 80 40.0001 80C37.3469 80 34.6931 79.7382 32.1131 79.2224C31.2672 79.0527 30.7185 78.23 30.8875 77.3834C31.0572 76.5375 31.8806 75.9888 32.7265 76.1578C35.1051 76.6339 37.5526 76.875 40.0001 76.875C60.3333 76.875 76.8751 60.3333 76.8751 40C76.8751 31.7914 74.1132 23.7793 69.0815 17.3285C68.1263 17.8534 67.0496 18.1329 65.9296 18.1329C64.1767 18.1329 62.5288 17.4506 61.2891 16.2109C60.0495 14.9713 59.3671 13.3234 59.3671 11.5704C59.3671 9.8175 60.0495 8.16956 61.2891 6.92993C62.5288 5.69092 64.1767 5.00793 65.9296 5.00793C67.6826 5.00793 69.3305 5.69092 70.5701 6.92993ZM62.4921 11.5704C62.4921 12.489 62.8498 13.3521 63.4992 14.0015C64.148 14.6503 65.0111 15.0079 65.9296 15.0079C66.8476 15.0079 67.7113 14.6503 68.3607 14.0015C69.7004 12.6611 69.7004 10.4803 68.3607 9.14001C67.7113 8.4906 66.8476 8.13293 65.9296 8.13293C65.0117 8.13293 64.148 8.4906 63.4992 9.14001C62.8498 9.78943 62.4921 10.6525 62.4921 11.5704Z" fill="black"/>
<path fill-rule="evenodd" clip-rule="evenodd" d="M35.1147 68.4375C34.2523 68.4375 33.5522 67.738 33.5522 66.875V63.8458C31.4984 63.2928 29.5343 62.4786 27.688 61.4154L25.5499 63.5541C25.257 63.847 24.8596 64.0118 24.4452 64.0118H24.4446C24.0302 64.0118 23.6328 63.8464 23.3398 63.5535L16.4343 56.6431C15.824 56.0327 15.8246 55.0433 16.4343 54.4336L18.5706 52.2974C17.5073 50.4517 16.6931 48.4875 16.1401 46.4331H13.1226C12.7075 46.4331 12.3102 46.2683 12.0172 45.9753C11.7242 45.6824 11.5595 45.2844 11.5601 44.87L11.5656 35.1001C11.5656 34.2377 12.265 33.5382 13.1281 33.5382H16.1401C16.6931 31.4838 17.5073 29.5203 18.5706 27.6746L16.4459 25.5499C16.153 25.257 15.9882 24.859 15.9882 24.4446C15.9882 24.0302 16.153 23.6328 16.4465 23.3398L23.3569 16.4337C23.9673 15.824 24.9567 15.8246 25.5664 16.4343L27.6886 18.5565C29.5343 17.4933 31.4984 16.6791 33.5522 16.1267V13.125C33.5522 12.262 34.2523 11.5625 35.1147 11.5625H44.8846C45.7477 11.5625 46.4471 12.262 46.4471 13.125V16.1261C48.5016 16.6791 50.4657 17.4933 52.3114 18.5565L54.433 16.4343C55.0433 15.824 56.0327 15.824 56.6425 16.4337L63.5535 23.3392C63.8464 23.6322 64.0112 24.0302 64.0118 24.4446C64.0118 24.859 63.847 25.257 63.5541 25.5499L61.4294 27.6746C62.4927 29.5203 63.3063 31.4844 63.8593 33.5382H66.8774C67.7405 33.5382 68.4399 34.2377 68.4399 35.1007V44.8706C68.4399 45.7336 67.7405 46.4331 66.8774 46.4331H63.8599C63.3069 48.4875 62.4927 50.4517 61.4294 52.2974L63.5657 54.4336C64.1754 55.0433 64.1754 56.0327 63.5657 56.6431L56.6602 63.5535C56.3672 63.847 55.9692 64.0118 55.5554 64.0118C55.1404 64.0118 54.743 63.847 54.4501 63.5541L52.3114 61.4154C50.4657 62.4786 48.5016 63.2928 46.4471 63.8458V66.875C46.4471 67.738 45.7477 68.4375 44.8846 68.4375H35.1147ZM26.3477 58.3368C26.8689 57.8162 27.6825 57.7295 28.3008 58.1293C30.4932 59.5459 32.8961 60.542 35.4431 61.0889C36.1627 61.2439 36.6772 61.8805 36.6772 62.6166V65.3125H43.3221V62.6166C43.3221 61.8799 43.8361 61.2439 44.5563 61.0889C47.1033 60.5414 49.5062 59.5459 51.6986 58.1293C52.3169 57.7295 53.1305 57.8156 53.6517 58.3368L55.5542 60.2386L60.2509 55.5383L58.3502 53.6377C57.8296 53.1171 57.7429 52.3035 58.1427 51.6846C59.5593 49.4928 60.5554 47.0892 61.1023 44.5422C61.2573 43.8226 61.8933 43.3081 62.63 43.3081H65.3149V36.6632H62.63C61.8933 36.6632 61.2567 36.1493 61.1023 35.4291C60.5548 32.8821 59.5593 30.4791 58.1427 28.2867C57.7429 27.6685 57.829 26.8549 58.3502 26.3336L60.2387 24.4452L55.5383 19.7485L53.6511 21.6351C53.1305 22.1564 52.3169 22.2424 51.6986 21.8427C49.5068 20.426 47.1033 19.4305 44.5563 18.8831C43.8361 18.7286 43.3221 18.092 43.3221 17.3553V14.6875H36.6772V17.356C36.6772 18.092 36.1627 18.7286 35.4431 18.8837C32.8955 19.4305 30.4926 20.4266 28.3008 21.8433C27.6819 22.2424 26.8689 22.1564 26.3477 21.6357L24.4611 19.7485L19.7607 24.4452L21.6492 26.3342C22.1698 26.8549 22.2565 27.6685 21.8567 28.2867C20.4401 30.4791 19.444 32.8821 18.8971 35.4291C18.7421 36.1493 18.1061 36.6632 17.3694 36.6632H14.6893L14.6857 43.3081H17.3694C18.1061 43.3081 18.7421 43.8226 18.8971 44.5422C19.444 47.0898 20.4401 49.4928 21.8567 51.6852C22.2565 52.3035 22.1698 53.1171 21.6492 53.6377L19.7485 55.5389L24.4452 60.2393L26.3477 58.3368Z" fill="black"/>
<path fill-rule="evenodd" clip-rule="evenodd" d="M40.0001 27.0892C47.1193 27.0892 52.9109 32.8809 52.9109 40C52.9109 47.1191 47.1193 52.9108 40.0001 52.9108C32.881 52.9108 27.0894 47.1191 27.0894 40C27.0894 32.8809 32.881 27.0892 40.0001 27.0892ZM40.0001 30.2142C34.604 30.2142 30.2144 34.6039 30.2144 40C30.2144 45.3961 34.604 49.7858 40.0001 49.7858C45.3962 49.7858 49.7859 45.3955 49.7859 40C49.7859 34.6045 45.3962 30.2142 40.0001 30.2142Z" fill="black"/>
<path d="M54.3872 5.90942C54.7986 5.90942 55.2014 5.74219 55.4919 5.45166C55.7825 5.1593 55.9497 4.75647 55.9497 4.34509C55.9497 3.93616 55.7831 3.53271 55.4919 3.24036C55.2014 2.94983 54.7986 2.78259 54.3872 2.78259C53.9746 2.78259 53.5736 2.94983 53.2831 3.24036C52.9919 3.53271 52.8247 3.93433 52.8247 4.34509C52.8247 4.75769 52.9919 5.1593 53.2831 5.45166C53.5736 5.74219 53.9746 5.90942 54.3872 5.90942Z" fill="black"/>
<path d="M25.6812 74.1187C25.2704 74.1187 24.8669 74.2859 24.5764 74.5764C24.2859 74.8669 24.1187 75.2704 24.1187 75.6812C24.1187 76.0938 24.2859 76.4954 24.5764 76.7859C24.8669 77.0764 25.2704 77.2437 25.6812 77.2437C26.0919 77.2437 26.4954 77.0764 26.7859 76.7859C27.0764 76.4954 27.2437 76.0919 27.2437 75.6812C27.2437 75.2704 27.0764 74.8669 26.7859 74.5764C26.4954 74.2859 26.0919 74.1187 25.6812 74.1187Z" fill="black"/>
</svg>
