<svg width="156" height="48" viewBox="0 0 156 48" fill="none" xmlns="http://www.w3.org/2000/svg">
<path fill-rule="evenodd" clip-rule="evenodd" d="M0 0.502686H23.437C35.1585 0.502686 46.8735 11.0703 46.8735 24.0934C46.8735 37.1165 35.1585 47.6776 23.437 47.6776H0V0.502686ZM12.7229 24.0859C12.7207 30.0054 17.5175 34.8059 23.437 34.8082C26.2802 34.8104 29.0076 33.6825 31.0187 31.6728C33.0298 29.6631 34.1597 26.9365 34.1595 24.0934C34.1615 18.1739 29.3645 13.3736 23.445 13.3715C17.5255 13.3694 12.7251 18.1664 12.7229 24.0859Z" fill="url(#paint0_linear)"/>
<path fill-rule="evenodd" clip-rule="evenodd" d="M132.175 14.9484C132.175 21.6368 136.159 26.6079 143.907 26.6079C151.656 26.6079 155.64 21.6368 155.642 14.9484V11.6589C155.642 4.97048 151.655 0 143.907 0C136.159 0 132.175 4.97048 132.175 11.6589V14.9484ZM81.5926 10.6725C81.5926 4.7876 77.9743 0.511106 70.9201 0.511106H59.7359V26.0962H70.9201C77.9743 26.0962 81.5926 21.8197 81.5926 15.9354V10.6725ZM69.7871 5.66744C73.5882 5.66744 75.3062 7.38543 75.3062 10.6379V15.9718C75.3062 19.2243 73.5882 20.9423 69.7871 20.9423H65.986V5.66744H69.7871ZM101.065 21.3467H91.8177L90.3922 26.0986H84.1058L93.2426 0.511106H99.6761L108.813 26.0962H102.526L101.065 21.3467ZM99.5295 16.303H93.3528L96.4593 6.17915L99.5295 16.303ZM128.69 0.511106V5.81279H121.78V26.0962H115.495V5.81101H108.585V0.511106H128.69ZM143.907 5.22603C140.252 5.22603 138.461 7.67553 138.461 11.3301V15.2772C138.461 18.9324 140.252 21.3813 143.907 21.3813C147.562 21.3813 149.353 18.9324 149.353 15.2772V11.3301C149.353 7.67553 147.562 5.22603 143.907 5.22603ZM67.5323 44.0578C66.9425 44.6098 66.1472 44.8875 65.342 44.8225C63.0248 44.8225 62.0848 43.2832 62.0848 41.075V38.666C62.0848 36.4577 63.0218 34.9185 65.342 34.9185C66.1472 34.8534 66.9425 35.1311 67.5323 35.6832C68.122 36.2353 68.4515 37.0105 68.4396 37.8183H71.9864C71.9417 34.517 69.5107 31.7517 65.3837 31.7517C60.5657 31.7517 58.2461 34.785 58.2461 38.8447V40.8969C58.2461 44.9565 60.5657 47.9904 65.3837 47.9904C69.5107 47.9904 71.9417 45.224 71.9864 41.9226H68.4396C68.4515 42.7304 68.122 43.5057 67.5323 44.0578ZM87.4155 32.0633H90.9402V47.6777H87.26V39.4249L84.8058 44.1976H81.7725L79.3414 39.4249V47.6777H75.6606V32.0633H79.1848L83.2891 40.5621L87.4155 32.0633ZM94.7086 43.0604C94.7086 46.2033 97.229 47.9904 100.976 47.9904C104.59 47.9904 107.356 46.0049 107.356 42.8823C107.356 40.7187 106.352 39.3355 103.854 38.6666L99.7053 37.5514C99.0886 37.4569 98.6502 36.9014 98.7015 36.2796C98.7015 35.1645 99.5486 34.6963 100.887 34.6963C102.493 34.6963 103.073 35.566 103.073 36.615V36.8825H106.618V36.503C106.618 33.6478 104.387 31.7523 100.885 31.7523C97.1825 31.7523 94.9743 33.5364 94.9743 36.637C94.9743 39.1801 96.2234 40.2505 98.6551 40.8528L102.559 41.8345C103.224 41.9416 103.693 42.5459 103.631 43.2171C103.631 44.4216 102.582 45.0685 100.999 45.0685C99.2365 45.0685 98.3888 44.2655 98.3888 42.9496V42.6363H94.7086V43.0604Z" fill="#FF7751"/>
<defs>
<linearGradient id="paint0_linear" x1="0" y1="47.6773" x2="46.8735" y2="47.6773" gradientUnits="userSpaceOnUse">
<stop stop-color="#FF593D"/>
<stop offset="1" stop-color="#FF7751"/>
</linearGradient>
</defs>
</svg>
