<svg width="80" height="80" viewBox="0 0 80 80" fill="none" xmlns="http://www.w3.org/2000/svg">
<path fill-rule="evenodd" clip-rule="evenodd" d="M77.3333 25.447C77.3333 23.2425 75.5425 21.4553 73.3333 21.4553H61.3333C61.3314 20.6787 61.2869 19.9027 61.2 19.1308C61.1791 18.9364 61.1457 18.7451 61.1122 18.5531C61.0966 18.4639 61.081 18.3745 61.0667 18.2846C60.996 17.8162 60.924 17.3532 60.8227 16.8888C60.7533 16.5742 60.6672 16.2651 60.5807 15.9544L60.5807 15.9542L60.556 15.8656C60.452 15.4851 60.3453 15.1072 60.22 14.736C60.0947 14.3648 59.9653 14.0162 59.82 13.6609C59.6747 13.3056 59.5427 12.9956 59.392 12.6603C59.232 12.3077 59.068 11.9578 58.8867 11.6145C58.7053 11.2712 58.5147 10.9492 58.32 10.6232C58.274 10.5461 58.2286 10.4689 58.1832 10.3917L58.1832 10.3916L58.1831 10.3916L58.1831 10.3916L58.1831 10.3915L58.1831 10.3915C58.0483 10.1623 57.9139 9.9337 57.7653 9.71179C57.4173 9.19021 57.0427 8.68726 56.652 8.19895C56.62 8.15941 56.5905 8.11834 56.561 8.07721C56.5289 8.03252 56.4967 7.98776 56.4613 7.94481C55.9599 7.3396 55.4258 6.76217 54.8613 6.21508C54.8162 6.17254 54.7695 6.13104 54.7228 6.08961C54.6951 6.06495 54.6674 6.04031 54.64 6.01549C54.1298 5.53206 53.5964 5.07479 53.04 4.64368C53.018 4.62705 52.9977 4.60876 52.9773 4.59046C52.957 4.57217 52.9367 4.55387 52.9147 4.53724L52.1333 3.94514L52.1147 3.95712C47.032 0.434364 40.6639 -0.704711 34.6716 0.837023C28.6793 2.37876 23.6569 6.44841 20.9147 11.9844L20.892 11.991L20.6253 12.5499C20.618 12.5665 20.6117 12.5835 20.6053 12.6004C20.599 12.6174 20.5927 12.6344 20.5853 12.651C20.3062 13.2604 20.0569 13.884 19.8373 14.5218C19.8246 14.5577 19.811 14.5934 19.7975 14.629C19.78 14.6752 19.7625 14.7214 19.7467 14.7679C19.544 15.376 19.3733 15.996 19.2267 16.6307C19.2146 16.6806 19.201 16.7303 19.1875 16.7799L19.1875 16.78C19.1696 16.8454 19.1517 16.9108 19.1373 16.9767C19.004 17.5701 18.916 18.1742 18.8387 18.7849C18.8304 18.8526 18.8189 18.9197 18.8073 18.9868L18.8073 18.9869L18.8073 18.987C18.7945 19.0611 18.7817 19.1353 18.7733 19.2107C18.6989 19.9565 18.6633 20.7058 18.6667 21.4553H6.66667C4.45753 21.4553 2.66667 23.2425 2.66667 25.447V72.0167H0V76.0083C0 78.2129 1.79086 80 4 80H76C78.2091 80 80 78.2129 80 76.0083V72.0167H77.3333V25.447ZM21.428 19.5925C21.6141 17.7523 22.0767 15.9506 22.8 14.2477C25.9881 13.6049 29.258 14.8844 31.1587 17.5182L31.7867 18.395C32.7944 19.7956 33.3354 21.4768 33.3333 23.201C33.3358 27.5194 35.8839 31.4322 39.8373 33.1882C42.4591 34.358 44.4809 36.5557 45.4253 39.2622C45.016 39.3953 44.604 39.4964 44.1907 39.5922C44.1701 39.5969 44.1501 39.6025 44.1302 39.6081L44.1301 39.6082L44.1301 39.6082L44.13 39.6082C44.11 39.6138 44.09 39.6195 44.0693 39.6241C43.8166 39.6815 43.5609 39.7259 43.3056 39.7703L43.1827 39.7918C42.8867 39.8437 42.604 39.8889 42.312 39.9249C42.0907 39.9528 41.8707 39.9794 41.6453 39.9994C41.1 40.0473 40.552 40.0832 39.9947 40.0832C29.692 40.0693 21.3444 31.7366 21.3333 21.4553C21.3333 20.8273 21.3667 20.2059 21.428 19.5925ZM42.012 42.6432C41.344 42.7071 40.6733 42.7443 40 42.7443C31.3139 42.7325 23.5004 37.4719 20.2373 29.4387H10.6667V66.6944H69.3333V29.4387H59.7627C59.668 29.6702 59.5667 29.8991 59.464 30.1266C59.4611 30.1334 59.4584 30.1403 59.4558 30.1473L59.4498 30.1636L59.4498 30.1637C59.444 30.1798 59.4382 30.196 59.4307 30.2118L59.236 30.6429L59.208 30.6562C57.0029 35.2252 53.2429 38.8638 48.5987 40.9228L48.6053 40.9507L48.3107 41.0611C48.284 41.0725 48.257 41.0821 48.23 41.0918C48.2169 41.0964 48.2039 41.1011 48.1909 41.1059C48.177 41.1111 48.1631 41.1165 48.1493 41.1224L47.524 41.3579C47.496 41.3682 47.4681 41.3767 47.4403 41.3852L47.4402 41.3852C47.411 41.394 47.382 41.4028 47.3533 41.4137C46.8427 41.604 46.3093 41.7797 45.776 41.93C45.7087 41.949 45.6406 41.966 45.5726 41.9829L45.5721 41.983C45.5163 41.9969 45.4605 42.0108 45.4053 42.0258C44.9173 42.1535 44.428 42.2733 43.9267 42.3664C43.7421 42.4023 43.5588 42.4282 43.3726 42.4544C43.2965 42.4651 43.22 42.4759 43.1427 42.4875C43.0423 42.5021 42.9422 42.5174 42.8421 42.5327C42.5673 42.5748 42.2925 42.6169 42.012 42.6432ZM57.1893 28.6896L55.3493 29.6063C54.1167 30.2233 52.6564 30.1828 51.46 29.4986L50.8653 29.1606C49.7494 28.5237 48.9947 27.4042 48.824 26.1327C48.6533 24.8613 49.0861 23.583 49.9947 22.6755C52.157 20.5132 52.6051 17.1757 51.0893 14.5218L50.2667 13.0927C49.2118 11.2598 49.7242 8.92715 51.4507 7.70265L52.0613 7.26755C52.5452 7.67964 53.008 8.11573 53.448 8.57416C53.5299 8.65873 53.6084 8.74669 53.6869 8.83466L53.6869 8.83469L53.6869 8.83472L53.687 8.83476L53.6878 8.83572C53.7189 8.87057 53.75 8.90543 53.7813 8.94007C54.088 9.27271 54.3809 9.61466 54.66 9.96593C54.8218 10.1717 54.9782 10.3811 55.1293 10.594C55.336 10.876 55.5293 11.1648 55.7213 11.4588C55.8907 11.7249 56.0547 11.991 56.2107 12.2572C56.3433 12.4834 56.4595 12.7096 56.5757 12.9358L56.6373 13.0555C56.7907 13.3575 56.9427 13.6596 57.0787 13.9696C57.1973 14.2357 57.3 14.5018 57.404 14.7812L57.436 14.8639C57.5483 15.1533 57.6612 15.4441 57.7573 15.7406C57.8365 15.9874 57.9029 16.2387 57.9694 16.49L58.012 16.6507C58.0315 16.7236 58.0514 16.7966 58.0715 16.8699L58.0716 16.8701L58.0716 16.8703L58.0717 16.8705C58.1354 17.1035 58.2 17.3393 58.2507 17.5821C58.3236 17.9266 58.3744 18.2767 58.4252 18.6273L58.4252 18.6273L58.4253 18.6274L58.4253 18.6275L58.44 18.729C58.4537 18.8217 58.4693 18.9136 58.485 19.0056L58.485 19.0058C58.5121 19.1646 58.5391 19.3235 58.556 19.4861C58.6271 20.1401 58.6641 20.7974 58.6667 21.4553C58.6667 22.086 58.6333 22.7087 58.572 23.3181C58.3835 25.1676 57.9174 26.9784 57.1893 28.6896ZM49.7973 5.62963C46.8584 3.79958 43.4641 2.82876 40 2.82747C33.6263 2.8338 27.6972 6.08798 24.2787 11.4562C27.8552 11.3923 31.2369 13.0783 33.3333 15.9708L33.96 16.8489C35.2906 18.7005 36.0042 20.9226 36 23.201C36.0022 26.4676 37.9296 29.4273 40.92 30.756C44.1842 32.213 46.7094 34.9387 47.9093 38.3002C50.7007 36.9881 53.1244 35.0087 54.9653 32.5376C53.3201 32.9071 51.5958 32.6459 50.1347 31.8058L49.54 31.4665C47.7031 30.4181 46.4607 28.5752 46.1799 26.4821C45.8992 24.3891 46.612 22.285 48.108 20.7914C49.4203 19.4783 49.693 17.4526 48.7747 15.8404L47.956 14.4113C46.2495 11.4417 47.0408 7.66739 49.7973 5.62963ZM5.33333 25.447C5.33333 24.7122 5.93029 24.1164 6.66667 24.1164H18.852C18.9667 25.0137 19.1395 25.9026 19.3693 26.7776H8V69.3555H72V26.7776H60.6307C60.6477 26.7126 60.6651 26.6477 60.6826 26.5828C60.7228 26.4338 60.763 26.2847 60.7973 26.1336C60.8067 26.0923 60.818 26.0518 60.8293 26.0112C60.8407 25.9706 60.852 25.93 60.8613 25.8888C60.9853 25.3073 61.0733 24.7139 61.148 24.1164H73.3333C74.0697 24.1164 74.6667 24.7122 74.6667 25.447V72.0167H5.33333V25.447ZM76 77.3389C76.7364 77.3389 77.3333 76.7432 77.3333 76.0083V74.6778H2.66667V76.0083C2.66667 76.7432 3.26362 77.3389 4 77.3389H76Z" fill="black"/>
<path fill-rule="evenodd" clip-rule="evenodd" d="M45.3336 58.711V64.0333H34.6669V58.711H29.1016L40.0002 46.0215L50.8989 58.711H45.3336ZM45.1016 56.0499L40.0002 50.1116L34.8989 56.0499H37.3336V61.3722H42.6669V56.0499H45.1016Z" fill="black"/>
</svg>
