<svg width="182" height="48" viewBox="0 0 182 48" fill="none" xmlns="http://www.w3.org/2000/svg">
<path fill-rule="evenodd" clip-rule="evenodd" d="M147.032 22.7914C148.745 20.3923 151.144 20.0496 152.515 20.0496C157.485 20.0496 160.912 23.991 160.912 29.1319C160.912 34.2729 157.485 38.2143 152.344 38.2143C151.316 38.2143 148.745 38.0429 146.86 35.4725V37.7002H142.233V8.91089H147.032V22.7914ZM122.012 24.6765V37.7002H117.214V24.6765H115.329V20.5637H117.214V14.7373H122.012V20.5637H125.268V24.6765H122.012ZM112.587 20.5637H107.789H107.618V22.7914C106.075 20.221 103.505 20.0496 102.134 20.0496C97.1644 20.0496 93.7371 23.991 93.7371 29.132C93.7371 34.1015 97.1644 38.2143 102.477 38.2143C103.848 38.2143 106.075 38.0429 107.789 35.4725V37.7002H112.587V20.5637ZM103.676 33.9302C100.763 33.9302 98.878 31.8738 98.878 29.132C98.878 26.3901 100.934 24.3337 103.676 24.3337C106.589 24.3337 108.474 26.3901 108.474 29.132C108.474 31.8738 106.418 33.9302 103.676 33.9302ZM133.836 23.4769C134.351 23.4769 135.379 23.6483 136.578 24.6765L138.977 21.9346C136.75 20.221 134.693 20.0496 133.494 20.0496C132.123 20.0496 130.409 20.221 129.038 21.2492C128.181 22.106 127.325 23.4769 127.325 25.1906C127.325 26.5615 127.839 27.5897 128.696 28.4465C129.622 29.3729 130.826 29.8819 131.933 30.3497C132.055 30.4011 132.175 30.452 132.294 30.5029L133.322 30.8456C134.008 31.017 134.865 31.5311 134.865 32.5592C134.865 33.7588 133.836 34.4443 132.466 34.4443C131.095 34.4443 129.724 33.4161 128.696 32.3879L126.125 35.3011C127.325 36.5006 129.21 38.2143 132.808 38.2143C134.865 38.2143 136.578 37.5288 137.949 36.3293C139.32 35.1297 139.834 33.5874 139.834 32.0452C139.834 30.8456 139.492 29.8174 138.977 29.132C138.256 27.9771 136.683 27.4302 135.385 26.9792C135.142 26.8949 134.909 26.8139 134.693 26.7328L133.494 26.3901C132.123 25.876 131.951 25.3619 131.951 24.8478C131.951 23.991 132.637 23.4769 133.836 23.4769ZM156.114 29.132C156.114 31.8738 154.058 33.9302 151.316 33.9302C148.402 33.9302 146.517 31.8738 146.517 29.132C146.517 26.3901 148.402 24.3337 151.316 24.3337C154.229 24.3337 156.114 26.3901 156.114 29.132ZM168.795 35.1297L160.569 20.5637H166.224L171.537 30.3315L176.335 20.5637H181.819L168.109 46.7825H162.626L168.795 35.1297ZM80.542 23.4769H92.5375C92.5375 23.5854 92.5547 23.6939 92.5728 23.8079C92.6117 24.0539 92.6546 24.3251 92.5375 24.6765C92.5375 32.3879 86.7111 38.557 78.8283 38.557C70.9455 38.557 65.1191 32.3879 65.1191 24.6765C65.1191 16.965 71.2883 10.7959 78.8283 10.7959C83.2838 10.7959 87.3966 12.8523 89.9671 16.4509L86.0257 19.0214C84.312 16.7937 81.5702 15.4228 78.8283 15.4228C73.8588 15.4228 70.4315 19.7069 70.4315 24.6765C70.4315 29.646 74.0301 33.7588 78.9997 33.7588C83.4552 33.7588 85.8543 31.5311 86.8825 28.2751H80.542V23.4769Z" fill="black"/>
<path fill-rule="evenodd" clip-rule="evenodd" d="M30.8454 23.991H42.8409C42.8409 32.902 36.5004 40.442 28.2749 42.4984L5.65472 19.8783C7.53973 11.4814 15.0798 5.14087 23.9908 5.14087C30.3313 5.14087 35.8149 8.22544 39.2422 12.8523L36.6718 15.08C33.7586 11.1386 29.1317 8.56817 23.9908 8.56817C17.3075 8.56817 11.4811 12.8523 9.42475 18.8501L29.1317 38.557C34.1013 36.8434 37.8713 32.5593 39.0709 27.4183H30.8454V23.991ZM10.6243 37.1861C7.02564 33.5874 5.14062 28.9606 5.14062 24.1624L23.648 42.6698C19.0212 42.6698 14.223 40.7848 10.6243 37.1861Z" fill="white"/>
<path fill-rule="evenodd" clip-rule="evenodd" d="M23.9911 0C10.796 0 0 10.796 0 23.9911C0 37.1862 10.796 47.9822 23.9911 47.9822C37.1862 47.9822 47.9822 37.1862 47.9822 23.9911C47.9822 10.796 37.1862 0 23.9911 0ZM10.6246 37.3576C7.02596 33.7589 5.14095 28.9607 5.14095 24.3338L23.8197 42.8412C19.0215 42.6699 14.2233 40.9562 10.6246 37.3576ZM5.65504 19.8783L28.1038 42.3271C36.5007 40.4421 42.8412 32.9021 42.8412 23.9911H30.8457V27.4184H39.0712C37.8717 32.5593 34.1016 36.8435 29.132 38.5571L9.42507 18.8501C11.6528 12.8524 17.3079 8.56825 23.9911 8.56825C29.132 8.56825 33.7589 11.1387 36.6721 15.0801L39.2426 12.8524C35.8153 8.22552 30.3316 5.14095 23.9911 5.14095C15.0801 5.14095 7.54006 11.4814 5.65504 19.8783Z" fill="#663399"/>
</svg>
