<svg width="178" height="48" viewBox="0 0 178 48" fill="none" xmlns="http://www.w3.org/2000/svg">
<path fill-rule="evenodd" clip-rule="evenodd" d="M19.2847 20.5398H34.1796C34.5638 20.5398 34.8754 20.8517 34.8754 21.2356V43.9482C34.8754 44.0788 34.8532 44.3634 34.6495 44.4763C34.6495 44.4763 29.7066 47.9583 21.5586 47.9583C11.718 47.9583 0.0400391 44.9281 0.0400391 24.5902C0.0400391 4.25381 10.2398 0.0229492 20.1834 0.0229492C28.8149 0.0229492 32.2316 1.93483 32.7915 2.33418C32.9967 2.48145 33.0576 2.69847 33.0576 2.87822L31.396 9.91416C31.396 10.2991 30.9951 10.7302 30.5618 10.5973C30.4222 10.5542 30.2746 10.5063 30.1167 10.4551C28.7148 10.0007 26.5064 9.28486 21.9849 9.28486C16.1733 9.28486 9.98292 11.0055 9.98292 24.0805C9.98292 37.1529 15.9278 38.7082 20.1834 38.7082C23.7905 38.7082 25.0952 38.2631 25.0952 38.2631V29.2156H19.2847C18.9001 29.2148 18.5888 28.903 18.5886 28.5184V21.2359C18.5888 20.8516 18.9003 20.5401 19.2847 20.5398ZM110.742 1.96611C110.872 2.09745 110.944 2.27507 110.942 2.45967V46.3458C110.942 46.7322 110.634 47.0474 110.25 47.0474H101.844C101.46 47.0474 101.149 46.7326 101.149 46.3458L101.171 27.5739H88.0987V46.3458C88.0987 46.7322 87.7901 47.0474 87.4066 47.0474H79.0202C78.6386 47.0474 78.3274 46.7326 78.3274 46.3458V2.45967C78.3256 2.07516 78.6357 1.76191 79.0202 1.75988H87.4066C87.5913 1.76056 87.7681 1.83476 87.898 1.96607C88.0278 2.09738 88.1001 2.275 88.0987 2.45967V18.6675H101.171L101.169 2.45967C101.169 2.27476 101.241 2.09715 101.372 1.96591C101.502 1.83468 101.679 1.76056 101.864 1.75988H110.251C110.436 1.76056 110.612 1.83478 110.742 1.96611ZM50.0058 8.21893C50.0058 5.19868 47.5846 2.75826 44.5975 2.75826C41.6134 2.75826 39.1904 5.19868 39.1904 8.21893C39.1904 11.2355 41.6134 13.6822 44.5975 13.6822C47.5846 13.6822 50.0058 11.2355 50.0058 8.21893ZM49.406 16.8305V37.0883V45.9213C49.406 46.6351 49.2034 47.0411 48.377 47.0411H40.8446C40.1566 47.0411 39.6252 46.788 39.6252 45.9346V16.9117C39.6252 16.5267 39.9684 16.1311 40.3519 16.1311H48.7121C49.0967 16.1331 49.407 16.446 49.406 16.8305ZM142.815 16.1971H134.493C134.111 16.1971 133.8 16.5116 133.8 16.8988V38.4174C133.8 38.4174 131.686 39.9646 128.685 39.9646C125.684 39.9646 124.888 38.603 124.888 35.6647V16.8988C124.888 16.5116 124.578 16.1971 124.196 16.1971H115.749C115.368 16.1971 115.056 16.5116 115.056 16.8988V37.0854C115.056 45.8128 119.92 47.948 126.612 47.948C132.101 47.948 136.527 44.9156 136.527 44.9156C136.527 44.9156 136.738 46.5133 136.833 46.7031C136.929 46.892 137.177 47.0829 137.445 47.0829L142.819 47.0592C143.2 47.0592 143.513 46.744 143.513 46.3587L143.51 16.8992C143.51 16.5116 143.199 16.1971 142.815 16.1971ZM157.435 38.5399C157.435 38.5399 159.393 39.8502 162.279 39.938C166.318 40.0595 167.621 38.5717 167.621 31.0327C167.621 23.8838 164.733 22.9784 161.736 23.2467C159.366 23.4586 157.435 24.6426 157.435 24.6426V38.5399ZM165.562 15.2117C160.835 15.2117 157.62 17.3207 157.62 17.3207V2.46004C157.62 2.0725 157.31 1.75988 156.928 1.75988H148.517C148.333 1.76076 148.156 1.83503 148.026 1.96635C147.896 2.09767 147.823 2.27526 147.824 2.46004V46.3458C147.824 46.7326 148.135 47.0474 148.518 47.0474H154.354C154.617 47.0474 154.816 46.912 154.962 46.675C155.107 46.4392 155.317 44.6517 155.317 44.6517C155.317 44.6517 158.756 47.9107 165.266 47.9107C172.909 47.9107 177.293 44.0338 177.293 30.5067C177.293 16.9792 170.292 15.2117 165.562 15.2117ZM67.219 16.1274H73.5101C73.6948 16.1278 73.8718 16.2017 74.002 16.3328C74.1322 16.4638 74.2048 16.6413 74.204 16.8261V23.5867C74.204 23.9746 73.8936 24.2872 73.5101 24.2872H67.2186L67.219 36.6266C67.219 38.4864 68.2661 39.9233 71.3561 39.9233C71.9535 39.9233 72.5404 39.8662 72.9878 39.8227C73.2635 39.7958 73.4863 39.7742 73.626 39.7742C73.9943 39.7742 74.3213 40.0868 74.3213 40.4743L74.3143 46.4115C74.3143 46.6912 74.1696 46.9492 73.9205 47.0408C73.5086 47.1936 71.0136 47.8631 68.9278 47.8631C64.363 47.8631 57.5983 46.9157 57.5983 37.2714V24.2876H53.2028C52.8193 24.2876 52.5093 23.9753 52.5093 23.587V18.1899C52.5092 17.88 52.714 17.6073 53.0116 17.5211C53.3021 17.4369 57.5983 16.4001 57.5983 16.4001V7.81109C57.5983 7.49109 57.7773 7.34419 58.1106 7.34419H66.6838C67.0473 7.34419 67.2094 7.50142 67.2094 7.81589L67.219 16.1274Z" fill="#121110"/>
</svg>
