<svg width="118" height="48" viewBox="0 0 118 48" fill="none" xmlns="http://www.w3.org/2000/svg">
<path opacity="0.1" d="M105.642 0.987128C105.619 1.0789 105.619 1.17067 105.642 1.26244C105.642 1.26244 105.94 3.21381 105.596 4.08598L91.4552 40.884C90.4453 43.5928 91.7996 46.5999 94.5083 47.633C97.2171 48.6658 100.224 47.3345 101.303 44.6487L115.444 7.8507C115.719 7.13907 117.303 5.7388 117.303 5.7388C117.372 5.6698 117.441 5.60103 117.487 5.53225V5.50925C117.487 5.48625 117.51 5.48625 117.51 5.46325C117.877 4.5223 115.513 2.73172 112.253 1.46922C108.993 0.206491 106.032 -0.0460542 105.665 0.918126C105.665 0.918126 105.642 0.941127 105.642 0.987128Z" fill="black"/>
<path d="M105.229 0.665625C105.206 0.757627 105.206 0.849399 105.229 0.941171C105.229 0.941171 105.527 2.8923 105.183 3.76471L91.042 40.5627C90.0323 43.2715 91.3866 46.2786 94.0954 47.3115C96.8041 48.3445 99.8112 47.0132 100.89 44.3275L115.031 7.52943C115.306 6.8178 116.89 5.41753 116.89 5.41753C116.959 5.34852 117.028 5.27975 117.074 5.21098V5.18798C117.074 5.16498 117.097 5.16498 117.097 5.14198C117.464 4.2008 115.1 2.41044 111.84 1.14771C108.58 -0.114782 105.619 -0.367327 105.252 0.596853C105.252 0.619854 105.252 0.642854 105.229 0.665855V0.665625Z" fill="url(#paint0_linear)"/>
<path d="M109.682 17.3086L99.4664 43.8454C98.709 45.7508 96.5281 46.7377 94.577 45.9803C92.6256 45.2227 91.5926 42.996 92.3045 41.0906L98.8238 24.1264C98.8238 24.1264 99.6272 22.8179 101.234 21.877C102.841 20.9355 104.15 21.1421 105.917 20.3617C107.707 19.5813 109.682 17.3086 109.682 17.3086Z" fill="url(#paint1_linear)"/>
<path d="M114.635 4.37449C114.839 3.84341 113.374 2.78378 111.364 2.00774C109.354 1.23171 107.56 1.03298 107.356 1.56383C107.153 2.09492 108.617 3.15432 110.627 3.93058C112.638 4.70662 114.432 4.90535 114.635 4.37449Z" fill="#333333"/>
<path opacity="0.3" d="M105.133 0.938477C105.133 0.938477 105.43 2.88432 105.088 3.7542L91.0394 40.4485C90.0362 43.1494 91.3817 46.1482 94.0727 47.1784C94.5288 47.3615 95.0077 47.4758 95.4866 47.4988C93.6387 46.0879 92.9265 43.6372 93.7305 41.4557L107.505 5.49395C107.505 5.49395 105.612 3.7312 105.133 0.938477V0.938477Z" fill="white"/>
<g opacity="0.5">
<ellipse cx="100.618" cy="24.6077" rx="0.410559" ry="0.411939" fill="white"/>
<ellipse cx="103.286" cy="27.5609" rx="0.615723" ry="0.618023" fill="white"/>
<ellipse cx="99.2041" cy="31.0857" rx="1.16313" ry="1.1675" fill="white"/>
<ellipse cx="97.334" cy="33.2377" rx="0.615723" ry="0.618023" fill="white"/>
<ellipse cx="99.7743" cy="37.8157" rx="0.410559" ry="0.411939" fill="white"/>
</g>
<path opacity="0.1" fill-rule="evenodd" clip-rule="evenodd" d="M54.0605 35.3895C55.2772 35.0918 56.2641 34.4281 56.2641 33.3751C56.2641 33.2605 56.0576 33.2605 56.0576 33.3751C56.0576 33.9931 55.346 34.5196 54.5426 34.6341C52.6602 34.9315 48.9412 32.7341 47.1967 30.4678C49.079 31.1774 52.9127 30.1474 54.7261 28.8426C56.4019 27.6293 57.0676 26.3017 57.1826 25.2258C57.3891 23.4403 55.4377 22.3875 52.706 23.4403C50.9614 24.1501 48.8725 25.6837 46.6918 28.568C48.9873 24.7908 53.5096 18.6104 57.94 14.6732C63.3345 9.88906 66.4566 10.8045 61.6129 15.8864C59.6158 17.9694 55.8511 20.6705 53.2568 21.838C52.4537 22.1814 52.8437 22.6391 53.4178 22.3873C56.1724 21.1742 59.8453 18.6789 62.072 16.5958C68.6373 10.301 63.1507 5.56243 55.8968 12.2238C50.9614 16.7561 47.7478 21.4946 44.947 27.6523C44.757 27.8824 44.5767 28.1046 44.4032 28.3185L44.4024 28.3194L44.4021 28.3198C43.6956 29.1905 43.0991 29.9257 42.399 30.5136C42.2847 30.6046 42.2163 30.6956 42.1477 30.7868L42.1464 30.7885C39.736 32.8486 35.9485 35.6413 33.5841 35.6641C31.9082 35.7101 31.1966 34.4508 31.4951 32.8258C31.9542 30.2847 34.594 27.2859 36.8437 26.256C39.759 24.9282 41.4806 27.515 37.6471 29.5749C36.178 30.3305 34.4335 30.7425 33.7218 30.7425C32.8954 30.7425 32.9642 31.0858 33.6758 31.1088C34.8465 31.1546 36.7289 30.6511 37.9686 30.0787C41.8939 28.2018 42.1464 24.6993 37.8766 24.585C33.2397 24.4247 27.6844 28.3619 27.7304 33.3293C27.7764 35.5726 29.5668 36.7858 32.023 36.7858C36.132 36.7398 39.782 33.6267 42.7893 30.88C43.2254 30.5136 43.6385 30.1244 44.0518 29.7125C42.9959 32.3679 42.4678 34.84 42.7203 36.6713C42.8783 37.9764 43.6128 38.5958 44.2046 39.0949L44.2353 39.1208C44.3503 39.2122 44.6027 39.1208 44.4421 38.8688C43.5697 37.8388 43.8223 34.7484 45.016 31.7499C46.0259 33.7643 49.9514 36.3051 54.0605 35.3895ZM30.2094 21.7235C29.452 22.5476 28.3271 22.8452 27.7074 22.3415V22.3418C27.0646 21.861 27.2023 20.7621 28.0057 19.8922C28.7634 19.0223 29.8881 18.7247 30.508 19.2284C31.1278 19.7321 31.0131 20.8536 30.2094 21.7235ZM25.6413 24.3789C25.3887 24.2644 25.6871 23.9667 25.8481 23.9667C26.3529 23.9437 27.2483 24.1501 27.5697 25.4089C28.3501 28.8196 25.3887 34.863 20.7976 40.105C17.9513 43.3555 12.8091 46.5143 8.42451 46.5143C4.43024 46.5143 1.12461 44.8434 0.412974 40.5627C0.321202 40.105 0.780292 40.1736 0.826293 40.5172C1.40039 43.6301 4.06292 45.759 7.20801 45.759C11.1333 45.759 16.8494 40.9749 20.6141 35.7786C21.5783 34.4738 24.1033 30.7655 25.3887 27.9042C24.6342 28.878 23.7079 29.6163 23.2324 29.9954L23.1851 30.0331C22.9785 30.1932 22.68 29.7353 22.8868 29.5294C23.7129 28.8656 25.8481 26.9198 26.1464 25.203C26.1464 24.7908 25.9856 24.4932 25.6413 24.3789ZM52.752 28.5908C55.8051 26.256 53.9229 22.4333 49.125 26.7137C48.2068 27.5378 47.2884 28.4077 46.485 29.3921C46.5461 29.5292 46.6277 29.6664 46.7092 29.8036L46.7094 29.8039C46.7502 29.8726 46.7911 29.9414 46.8293 30.0101L47.0361 30.1244C48.0231 30.7197 51.1679 29.804 52.752 28.5908ZM75.7994 21.838C77.7277 22.0439 76.9241 19.7091 74.973 20.3044C74.1008 20.556 73.2514 22.2272 72.6315 23.6693C70.7034 26.5306 67.4895 30.4451 65.2399 32.5052C63.2427 34.222 61.4064 34.6799 63.6558 31.475C63.9001 31.1341 64.1623 30.7866 64.428 30.4344L64.4283 30.434C65.1615 29.4622 65.9221 28.4542 66.4106 27.4463C67.9946 23.9897 64.62 22.4561 61.8882 24.539C61.0576 25.1752 60.0755 26.164 59.0875 27.1587C58.1915 28.0608 57.2907 28.9677 56.4937 29.6209C56.0346 29.9871 56.1494 30.5364 56.6087 30.1702C57.1167 29.7597 57.7719 29.1458 58.5002 28.4633L58.5003 28.4632L58.5003 28.4632C59.6804 27.3574 61.0524 26.0718 62.3015 25.18C63.9774 23.8982 64.643 24.7223 63.6788 25.798L63.605 25.883C62.2628 27.429 59.995 30.041 59.4092 31.7039C58.5828 34.245 59.5698 35.3665 61.2456 35.3665C63.541 35.3665 66.9614 31.7956 69.2571 28.9572C70.0145 27.9957 70.8409 26.874 71.5526 25.798C69.5554 29.6667 67.4665 33.5809 64.8725 37.1292C61.1996 42.1194 56.6085 45.8736 52.2469 45.8736C49.102 45.8736 46.3933 43.7446 45.8194 40.6315C45.7734 40.2881 45.3603 40.2193 45.4061 40.6773C46.1177 44.9577 49.4233 46.6289 53.4176 46.6289C57.8022 46.6289 62.026 44.088 64.9873 40.9749C69.3021 36.424 70.8694 31.4667 72.1006 27.5726C72.5725 26.0801 72.995 24.7437 73.5039 23.6463C74.3761 21.838 75.1567 21.7695 75.7994 21.838ZM98.8698 13.1393C100.913 13.1393 100.959 14.3065 100.087 15.7944V15.7947C99.3774 16.9287 97.7169 18.7315 96.0959 20.4915C94.9357 21.7512 93.7957 22.9889 93.0392 23.9437C92.2358 24.9967 82.5484 37.9071 90.1469 35.0686C92.9014 34.0387 96.7121 30.5821 97.8368 29.4146C98.4567 28.7736 98.5715 29.4146 98.2044 29.7808C98.1225 29.8654 98.035 29.9563 97.9422 30.0526C95.8762 32.1973 91.1926 37.0596 87.3919 36.5337C83.7651 36.076 84.8899 32.2074 86.2671 29.4604L86.0606 29.6665L85.2112 30.5134C82.824 32.8484 79.151 35.9843 76.0519 35.5723C72.425 35.1146 73.5497 31.2459 74.9272 28.499C74.1696 29.2773 73.5039 29.9411 73.0448 30.2387C72.5398 30.5821 72.2414 30.193 72.7463 29.7808C74.009 28.7736 75.6388 26.9883 76.9701 25.2028C78.6002 23.0739 81.699 18.7932 83.4436 15.7489C83.7651 15.1306 84.362 13.4597 82.8927 14.2608C82.7754 14.3095 82.6539 14.3666 82.5335 14.4232C82.3714 14.4994 82.2113 14.5746 82.0663 14.6272C81.699 14.7872 81.5612 14.6272 81.8598 14.3295C83.1683 13.3223 85.9688 12.2466 87.5066 12.2006C89.55 12.2006 89.5958 13.3679 88.7234 14.856C87.9997 16.0269 86.2854 17.8861 84.6381 19.6727C83.5158 20.8898 82.4246 22.0733 81.699 22.9823C80.8956 24.0353 71.2083 36.9457 78.8067 34.1072C81.1712 33.2375 84.27 30.6051 85.831 29.117C86.724 28.1761 87.5596 27.1824 88.3333 26.1412C89.9631 24.0123 93.0622 19.7319 94.8068 16.6873C95.1281 16.0693 95.7249 14.3981 94.2559 15.1994C94.138 15.2483 94.0159 15.3057 93.895 15.3624C93.7333 15.4383 93.5738 15.5132 93.4295 15.5656C93.0622 15.7257 92.9244 15.5656 93.2227 15.268C94.5312 14.2608 97.3318 13.185 98.8698 13.1393Z" fill="black"/>
<path fill-rule="evenodd" clip-rule="evenodd" d="M53.6471 35.0003C54.8638 34.7027 55.851 34.0389 55.851 32.9859C55.851 32.8714 55.6442 32.8714 55.6442 32.9859C55.6442 33.604 54.9328 34.1304 54.1292 34.245C52.2468 34.5424 48.5281 32.3451 46.7835 30.0787C48.6659 30.7885 52.4994 29.7583 54.313 28.4535C55.9888 27.2402 56.6544 25.9126 56.7692 24.8366C56.9757 23.0511 55.0246 21.9984 52.2928 23.0511C50.5483 23.7609 48.4591 25.2946 46.2784 28.1788C48.5739 24.4017 53.0962 18.2212 57.5268 14.284C62.9214 9.4999 66.0432 10.4153 61.1995 15.4973C59.2024 17.5802 55.4379 20.2814 52.8437 21.4489C52.0403 21.7923 52.4306 22.25 53.0045 21.9981C55.7592 20.7851 59.432 18.29 61.6586 16.2066C68.2241 9.91184 62.7376 5.17327 55.4837 11.8347C50.5483 16.3442 47.3346 21.1055 44.5339 27.2632C44.3434 27.4937 44.1629 27.7162 43.989 27.9305L43.9889 27.9307C43.2823 28.8015 42.6857 29.5367 41.9856 30.1244C41.8713 30.2156 41.8026 30.3071 41.7341 30.3983L41.7333 30.3993C39.3229 32.4594 35.5351 35.2522 33.1707 35.2749C31.4951 35.3209 30.7832 34.0617 31.0818 32.4367C31.5409 29.8956 34.1809 26.8968 36.4305 25.8668C39.3459 24.5392 41.0674 27.1259 37.234 29.1858C35.7647 29.9414 34.0201 30.3535 33.3085 30.3535C32.4821 30.3535 32.5511 30.6967 33.2625 30.7197C34.4332 30.7655 36.3158 30.262 37.5553 29.6895C41.4808 27.8127 41.7333 24.3101 37.4633 24.1958C32.8264 24.0355 27.2711 27.9727 27.3171 32.9402C27.3631 35.1834 29.1534 36.3967 31.6099 36.3967C35.7189 36.3507 39.3689 33.2378 42.3759 30.4908C42.812 30.1244 43.2254 29.7353 43.6387 29.3233C42.5825 31.9787 42.0546 34.4508 42.3069 36.2821C42.4652 37.5873 43.1997 38.2066 43.7915 38.7058L43.8222 38.7317C43.937 38.823 44.1895 38.7317 44.0288 38.4798C43.1566 37.4496 43.4089 34.3593 44.6026 31.3607C45.6356 33.3751 49.5611 35.916 53.6471 35.0003ZM29.7963 21.3343C29.0387 22.1584 27.9139 22.4561 27.2941 21.9524V21.9526C26.6742 21.4489 26.7892 20.3729 27.5926 19.503C28.35 18.6332 29.475 18.3355 30.0946 18.8392C30.7145 19.343 30.5997 20.4645 29.7963 21.3343ZM25.2512 23.9897C24.9986 23.8752 25.2969 23.5778 25.4577 23.5778C25.9626 23.5318 26.835 23.7379 27.1793 25.0199C27.9599 28.4307 24.9984 34.4738 20.4075 39.7159C17.5609 42.9663 12.419 46.1252 8.03437 46.1252C4.04011 46.1252 0.734478 44.4542 0.022843 40.1736C-0.068929 39.7159 0.389931 39.7844 0.435932 40.128C1.01002 43.2409 3.67279 45.3699 6.81765 45.3699C10.7429 45.3699 16.459 40.5858 20.2237 35.3895C21.1879 34.0847 23.7129 30.3763 24.9986 27.515C24.2429 28.49 23.3155 29.229 22.8403 29.6076L22.7947 29.644C22.5884 29.804 22.2898 29.3463 22.4964 29.1402C23.3226 28.4765 25.4577 26.5306 25.756 24.8139C25.756 24.4017 25.5955 24.1043 25.2512 23.9897ZM52.3388 28.1788C55.3919 25.8438 53.5096 22.0211 48.7117 26.3015V26.3018C47.7935 27.1259 46.8753 28.0185 46.0719 28.9799C46.1335 29.1183 46.2157 29.2566 46.298 29.3949L46.2981 29.3952L46.2982 29.3954C46.3384 29.4629 46.3785 29.5304 46.4162 29.598L46.6228 29.7125C47.6099 30.3078 50.7548 29.3921 52.3388 28.1788ZM75.3862 21.4491C77.3144 21.6552 76.511 19.3202 74.5598 19.9154C73.6874 20.1671 72.838 21.8383 72.2184 23.2804C70.29 26.1417 67.0762 30.0561 64.8267 32.1163C62.8294 33.833 60.993 34.291 63.2427 31.0861C63.4874 30.7445 63.75 30.3964 64.0162 30.0436L64.0162 30.0435L64.0163 30.0434C64.749 29.0722 65.509 28.0648 65.9975 27.0573C67.5813 23.6008 64.2069 22.0671 61.4751 24.1501C60.6443 24.7864 59.662 25.7754 58.6739 26.7702C57.7781 27.6721 56.8774 28.5789 56.0806 29.232C55.6215 29.5982 55.7362 30.1474 56.1953 29.7813C56.7037 29.3705 57.3594 28.7562 58.0882 28.0733L58.0882 28.0732L58.0882 28.0732C59.2681 26.9677 60.6396 25.6825 61.8882 24.7911C63.564 23.5093 64.2296 24.3334 63.2657 25.4091L63.1922 25.4937C61.8498 27.0399 59.5819 29.6519 58.9959 31.3152C58.1695 33.856 59.1566 34.9775 60.8322 34.9775C63.1277 34.9775 66.5483 31.4067 68.8438 28.5682C69.6014 27.6068 70.4278 26.4851 71.1392 25.4091C69.1423 29.2778 67.0534 33.1922 64.4594 36.7403C60.7862 41.7305 56.1953 45.4846 51.8337 45.4846C48.6889 45.4846 45.9801 43.3557 45.406 40.2426C45.36 39.8992 44.9469 39.8304 44.9929 40.2884C45.7046 44.5687 49.0102 46.24 53.0045 46.24C57.3891 46.24 61.6129 43.6991 64.5742 40.586C68.8889 36.0349 70.4563 31.0773 71.6875 27.1832C72.1593 25.6908 72.5818 24.3546 73.0906 23.2574C73.963 21.4491 74.7664 21.3576 75.386 21.4491H75.3862ZM98.4567 12.7273C100.5 12.7273 100.546 13.8948 99.6734 15.3827H99.6732C98.9512 16.5374 97.2513 18.385 95.6046 20.175C94.4761 21.4016 93.3726 22.601 92.6258 23.5318C91.8224 24.585 82.1353 37.4954 89.7335 34.6569C92.4883 33.6267 96.299 30.1702 97.4237 29.0029C98.0433 28.3619 98.1581 29.0029 97.791 29.3691C97.7094 29.4535 97.6222 29.544 97.5297 29.64C95.4645 31.7842 90.78 36.6478 86.9787 36.122C83.3518 35.6641 84.4767 31.7957 85.854 29.0487L85.6475 29.2546L84.798 30.1017C82.4106 32.4364 78.7377 35.5726 75.6386 35.1606C72.0116 34.7027 73.1366 30.8342 74.5138 28.0873C73.7562 28.8654 73.0906 29.5294 72.6315 29.8268C72.1266 30.1702 71.8281 29.781 72.3332 29.3691C73.5957 28.3619 75.2255 26.5764 76.557 24.7909C78.1868 22.6622 81.2859 18.3815 83.0305 15.337C83.3518 14.7189 83.9486 13.048 82.4796 13.8491C82.3623 13.8978 82.2407 13.9549 82.1204 14.0114C81.9581 14.0875 81.798 14.1627 81.6532 14.2152C81.2859 14.3755 81.1481 14.2152 81.4464 13.9176C82.7549 12.9104 85.5555 11.8347 87.0935 11.7889C89.1366 11.7889 89.1826 12.9562 88.3102 14.4443C87.5866 15.6152 85.8724 17.4742 84.2252 19.2606C83.1028 20.4778 82.0115 21.6613 81.2859 22.5704C80.4825 23.6236 70.7951 36.534 78.3936 33.6955C80.758 32.8256 83.8569 30.1932 85.4179 28.7053C86.3108 27.7644 87.1463 26.7707 87.9199 25.7295C89.55 23.6006 92.6488 19.32 94.3934 16.2756C94.7149 15.6574 95.3118 13.9864 93.8425 14.7875C93.7252 14.8363 93.6037 14.8934 93.4833 14.9499C93.3211 15.0261 93.1611 15.1013 93.0161 15.1539C92.6488 15.314 92.511 15.1539 92.8096 14.8563C94.1181 13.8491 96.9186 12.7733 98.4567 12.7273Z" fill="url(#paint2_linear)"/>
<defs>
<linearGradient id="paint0_linear" x1="80.2859" y1="56.6717" x2="118.912" y2="58.0768" gradientUnits="userSpaceOnUse">
<stop stop-color="#919191"/>
<stop offset="1" stop-color="white"/>
</linearGradient>
<linearGradient id="paint1_linear" x1="88.8359" y1="45.4682" x2="108.278" y2="46.4933" gradientUnits="userSpaceOnUse">
<stop stop-color="#990000"/>
<stop offset="1" stop-color="#E80000"/>
</linearGradient>
<linearGradient id="paint2_linear" x1="100.144" y1="46.173" x2="100.144" y2="8.58989" gradientUnits="userSpaceOnUse">
<stop stop-color="#1A1A1A"/>
<stop offset="0.4026" stop-color="#4A4A4C"/>
<stop offset="1" stop-color="#333333"/>
</linearGradient>
</defs>
</svg>
