<svg width="98" height="13" viewBox="0 0 98 13" fill="none" xmlns="http://www.w3.org/2000/svg">
<path d="M2.95514 9.259C2.01914 9.259 1.61614 8.869 1.61614 8.219C1.61614 7.387 2.11014 6.997 3.31914 6.997H4.94414V7.023C4.93114 8.44 4.12514 9.259 2.95514 9.259ZM5.00914 8.843L5.10014 10H6.06214V6.126C6.06214 4.15 4.97014 3.513 3.34514 3.513C2.09714 3.513 1.26514 3.877 0.784141 4.579L1.40814 5.255C1.77214 4.761 2.31814 4.41 3.24114 4.41C4.35914 4.41 4.91814 4.826 4.94414 6.139H3.30614C1.23914 6.139 0.524141 7.088 0.524141 8.258C0.524141 9.48 1.43414 10.156 2.70814 10.156C3.82614 10.156 4.60614 9.649 5.00914 8.843ZM8.39259 3.669V10H9.51059V6.841C9.54959 5.32 10.3426 4.462 11.5776 4.462C12.5786 4.462 13.1376 4.982 13.1376 6.308V10H14.2556V6.048C14.2556 4.384 13.5016 3.513 11.9156 3.513C10.8886 3.513 9.96559 3.89 9.48459 4.878L9.36759 3.669H8.39259ZM21.0271 6.815C21.0271 8.544 20.1951 9.259 19.0771 9.259C17.8551 9.259 17.2311 8.505 17.2311 6.841C17.2311 5.177 17.8291 4.41 19.0901 4.41C20.1951 4.41 21.0271 5.125 21.0271 6.815ZM21.1181 10H22.1451V0.899999H21.0271V4.579C20.5851 3.877 19.8571 3.513 18.9211 3.513C17.1141 3.513 16.1131 4.67 16.1131 6.828C16.1131 8.986 17.0491 10.156 18.7781 10.156C19.8441 10.156 20.6371 9.727 21.0531 8.869L21.1181 10ZM27.626 10H28.744V6.737C28.77 5.242 29.472 4.475 30.538 4.475C31.435 4.475 31.929 4.995 31.929 6.334V10H33.047V6.711C33.086 5.242 33.814 4.475 34.919 4.475C35.777 4.475 36.258 4.969 36.258 6.282V10H37.376V5.996C37.376 4.371 36.7 3.513 35.257 3.513C34.243 3.513 33.268 3.942 32.839 5.06C32.644 4.176 32.02 3.513 30.889 3.513C30.057 3.513 29.173 3.864 28.705 4.839L28.588 3.669H27.626V10ZM41.7012 9.259C40.7652 9.259 40.3622 8.869 40.3622 8.219C40.3622 7.387 40.8562 6.997 42.0652 6.997H43.6902V7.023C43.6772 8.44 42.8712 9.259 41.7012 9.259ZM43.7552 8.843L43.8462 10H44.8082V6.126C44.8082 4.15 43.7162 3.513 42.0912 3.513C40.8432 3.513 40.0112 3.877 39.5302 4.579L40.1542 5.255C40.5182 4.761 41.0642 4.41 41.9872 4.41C43.1052 4.41 43.6642 4.826 43.6902 6.139H42.0522C39.9852 6.139 39.2702 7.088 39.2702 8.258C39.2702 9.48 40.1802 10.156 41.4542 10.156C42.5722 10.156 43.3522 9.649 43.7552 8.843ZM47.1387 3.669V10H48.2567V6.841C48.2957 5.32 49.0887 4.462 50.3237 4.462C51.3247 4.462 51.8837 4.982 51.8837 6.308V10H53.0017V6.048C53.0017 4.384 52.2477 3.513 50.6617 3.513C49.6347 3.513 48.7117 3.89 48.2307 4.878L48.1137 3.669H47.1387ZM56.5362 10.845C56.1982 11.755 55.6392 11.846 55.2362 11.846C54.8852 11.846 54.6772 11.794 54.3912 11.703L54.2092 12.639C54.6122 12.769 54.8852 12.808 55.2232 12.808C56.2112 12.808 56.9912 12.444 57.4982 11.209L60.5532 3.669H59.3962L57.3812 8.947L55.3662 3.669H54.1832L56.7962 10.117L56.5362 10.845ZM64.9121 10H66.0301V6.737C66.0561 5.242 66.7581 4.475 67.8241 4.475C68.7211 4.475 69.2151 4.995 69.2151 6.334V10H70.3331V6.711C70.3721 5.242 71.1001 4.475 72.2051 4.475C73.0631 4.475 73.5441 4.969 73.5441 6.282V10H74.6621V5.996C74.6621 4.371 73.9861 3.513 72.5431 3.513C71.5291 3.513 70.5541 3.942 70.1251 5.06C69.9301 4.176 69.3061 3.513 68.1751 3.513C67.3431 3.513 66.4591 3.864 65.9911 4.839L65.8741 3.669H64.9121V10ZM76.5174 6.815C76.5174 9.155 77.5964 10.156 79.5854 10.156C81.5874 10.156 82.6534 9.09 82.6534 6.815C82.6534 4.501 81.6394 3.513 79.5854 3.513C77.6224 3.513 76.5174 4.527 76.5174 6.815ZM81.5354 6.828C81.5354 8.609 80.9114 9.259 79.5854 9.259C78.2594 9.259 77.6354 8.609 77.6354 6.828C77.6354 5.034 78.2334 4.41 79.5854 4.41C80.9114 4.41 81.5354 5.034 81.5354 6.828ZM84.6026 10H85.7206V6.958C85.7596 5.333 86.5396 4.475 88.0996 4.631V3.565C87.0206 3.487 86.1236 3.968 85.6816 5.008L85.5646 3.669H84.6026V10ZM92.0757 10.156C93.3237 10.156 94.2857 9.688 94.7927 8.583L93.9607 8.154C93.5707 9.025 93.0117 9.259 92.1017 9.259C90.9187 9.259 90.2687 8.7 90.1907 7.166H94.7797C94.7927 6.958 94.8057 6.763 94.8057 6.568C94.8057 4.813 93.9737 3.513 92.1017 3.513C90.1387 3.513 89.0857 4.67 89.0857 6.841C89.0857 9.129 90.1777 10.156 92.0757 10.156ZM92.0497 4.397C93.0507 4.397 93.6487 4.943 93.7007 6.308H90.2037C90.3207 4.93 90.9577 4.397 92.0497 4.397ZM97.5471 0.899999H96.3121L96.4681 7.478H97.3911L97.5471 0.899999ZM96.1691 9.324C96.1691 9.792 96.4551 10.065 96.9361 10.065C97.4041 10.065 97.7031 9.792 97.7031 9.324C97.7031 8.83 97.4041 8.583 96.9361 8.583C96.4551 8.583 96.1691 8.83 96.1691 9.324Z" fill="#231F20"/>
</svg>
