<svg width="133" height="48" viewBox="0 0 133 48" fill="none" xmlns="http://www.w3.org/2000/svg">
<path fill-rule="evenodd" clip-rule="evenodd" d="M13.8653 9.86134L13.8601 9.85727C13.8458 9.84612 13.837 9.83925 13.8528 9.80826C13.8528 9.78783 13.8528 9.76945 13.8733 9.748L23.459 0.217447C23.459 0.197021 23.4794 0.197021 23.4998 0.197021C23.5085 0.197021 23.5135 0.197021 23.5179 0.198589C23.5239 0.20071 23.5289 0.205701 23.5407 0.217447L27.6677 4.30562C27.6881 4.32502 27.6881 4.36485 27.6677 4.38528L22.694 12.102L22.6911 12.1048C22.6717 12.1233 22.6522 12.1419 22.6328 12.1419H22.6134C21.8265 11.8844 20.9628 12.0419 20.3175 12.5606C20.3056 12.5726 20.3006 12.5775 20.2946 12.5796C20.2904 12.581 20.2857 12.581 20.2777 12.581H20.2573C19.9958 12.4605 13.8743 9.86851 13.8743 9.86851H13.8733L13.8703 9.86565L13.8653 9.86134ZM0.0993178 23.5271L11.4968 25.9199V25.9209C11.5154 25.9209 11.5341 25.9031 11.5527 25.8852L11.558 25.8801C11.6775 25.6411 11.8593 25.4215 12.0411 25.2224C12.0615 25.203 12.0615 25.1631 12.0411 25.1427C11.9798 25.0631 6.52417 17.1666 6.52417 17.1461C6.50272 17.1267 6.50272 17.1267 6.46289 17.1063C6.44247 17.1063 6.42204 17.1063 6.42204 17.1267L0.059488 23.428C0.0390625 23.4474 0.0390625 23.4678 0.0390625 23.4862C0.0390625 23.5066 0.0584668 23.5271 0.0993178 23.5271ZM10.9126 27.3763C10.9524 27.3364 10.9728 27.316 10.9728 27.2956H10.9749C10.9749 27.2568 10.9545 27.2363 10.9136 27.2363L1.02664 25.1815H1.00723C0.986807 25.1815 0.966382 25.202 0.945956 25.2224C0.925531 25.2408 0.945956 25.2816 0.966382 25.302L5.37421 29.6884C5.39464 29.7089 5.41506 29.7089 5.41506 29.7089H5.43549L10.9126 27.3763ZM7.56996 16.1095L13.2891 24.4636H13.2881L13.2934 24.4687C13.3128 24.4873 13.3306 24.5044 13.3494 24.5044H13.3698C13.571 24.4636 13.7916 24.4248 13.9938 24.4248C14.2252 24.4286 14.4552 24.4623 14.678 24.5249H14.6985C14.7189 24.5249 14.7393 24.5044 14.7597 24.484L20.1562 16.1095C20.1756 16.0911 20.1756 16.0503 20.1572 16.0299C19.5979 15.4561 19.3699 14.6367 19.5526 13.8566C19.5526 13.8192 19.5346 13.8007 19.5167 13.7821L19.5117 13.7769C19.2374 13.6572 18.1019 13.1764 16.8386 12.6416L16.8384 12.6415C14.9457 11.8401 12.7662 10.9174 12.7662 10.9051H12.7458C12.7254 10.9051 12.7049 10.9051 12.7049 10.9255L7.56996 16.0299C7.54953 16.0503 7.54953 16.0901 7.56996 16.1095ZM15.1621 29.668L25.8345 45.1812C25.8549 45.2016 25.8549 45.2414 25.8345 45.2619L23.4988 47.5945C23.4988 47.6149 23.4784 47.6149 23.458 47.6149C23.458 47.6149 23.4375 47.6149 23.4171 47.5945L10.0884 34.374C10.068 34.3546 10.068 34.3148 10.0884 34.2944L10.1088 34.274L13.0093 29.7681C13.0287 29.7487 13.0491 29.7283 13.0685 29.7283H13.0889C13.3902 29.8283 13.6731 29.8682 13.9744 29.8682C14.3574 29.8682 14.7199 29.7875 15.0825 29.6292H15.1029C15.1223 29.6292 15.1417 29.6476 15.1602 29.6652L15.1631 29.668H15.1621ZM11.8797 28.9306C11.8797 28.9306 11.8797 28.9102 11.8593 28.8918L11.8501 28.8795C11.7929 28.803 11.7357 28.7264 11.6775 28.6314C11.6581 28.612 11.6377 28.5916 11.6183 28.5916H11.5979L6.60383 30.725C6.5834 30.725 6.56298 30.7454 6.56298 30.7659C6.56298 30.7843 6.56298 30.8047 6.5834 30.8251L9.02017 33.2374C9.04059 33.2578 9.06102 33.2578 9.06102 33.2578C9.0794 33.2578 9.09983 33.2374 9.12025 33.2169L11.8797 28.9306ZM16.7124 26.9565C16.7124 26.853 16.6952 26.7577 16.6775 26.66C16.668 26.6072 16.6583 26.5538 16.6511 26.498C16.6511 26.4571 16.6511 26.4377 16.692 26.4193L31.0103 20.2968H31.0307C31.0307 20.2968 31.0501 20.2968 31.0706 20.3172C31.1706 20.4163 31.2513 20.4765 31.332 20.5357C31.3729 20.5357 31.3729 20.5766 31.3729 20.597L30.1238 28.2719C30.1238 28.3128 30.1034 28.3332 30.0626 28.3332C29.3783 28.372 28.7737 28.7723 28.4326 29.3698L28.4273 29.3749C28.4086 29.3928 28.39 29.4106 28.3713 29.4106H28.3509L16.7727 27.0168C16.7318 27.0168 16.7114 26.9963 16.7114 26.9565H16.7124ZM29.4191 32.3008C29.46 32.3008 29.46 32.26 29.4191 32.2416L29.4181 32.2406C28.8174 31.9918 28.3695 31.4738 28.21 30.8435C28.21 30.8251 28.1895 30.8047 28.1487 30.7843L16.4694 28.371H16.4489C16.4295 28.371 16.4091 28.3914 16.3897 28.4118C16.3689 28.4454 16.3508 28.4767 16.3334 28.5066C16.2995 28.565 16.2689 28.6179 16.2283 28.6712C16.2079 28.6896 16.2079 28.7305 16.2283 28.7509L26.8598 44.1436C26.8716 44.1553 26.8766 44.1603 26.8826 44.1624C26.8841 44.163 26.8857 44.1633 26.8875 44.1636L26.8897 44.1638L26.8936 44.164L26.9007 44.164C26.9201 44.164 26.9405 44.164 26.9405 44.1436L27.5849 43.5063C27.5849 43.4961 27.59 43.491 27.5951 43.4859C27.6003 43.4808 27.6054 43.4757 27.6054 43.4654L29.4191 32.3008ZM38.2185 32.8799C38.2389 32.8799 38.2593 32.8983 38.2593 32.9586C38.2593 32.979 38.2593 32.9994 38.2389 33.0178L29.4998 41.6925C29.4998 41.7129 29.4794 41.7129 29.459 41.7129H29.4181C29.3977 41.6925 29.3783 41.6721 29.3783 41.6323L30.8898 32.3407C30.8898 32.3203 30.9092 32.2804 30.9286 32.2804C31.2857 32.1388 31.5987 31.9048 31.8355 31.6023C31.8451 31.6023 31.8551 31.5976 31.8653 31.5928C31.8758 31.5879 31.8864 31.5829 31.8968 31.5829H31.9162L38.2185 32.8799ZM30.4466 18.482C30.4466 18.4421 30.4261 18.4227 30.4057 18.4033H30.4047L23.9216 15.651H23.9012C23.8818 15.651 23.8614 15.6704 23.8409 15.6908C23.3977 16.3689 22.6532 16.7672 21.8474 16.7672C21.7373 16.7672 21.6263 16.751 21.5004 16.7326L21.4644 16.7274H21.444C21.4246 16.7274 21.4042 16.7468 21.3848 16.7672L16.0476 25.0416C16.0271 25.062 16.0271 25.1029 16.0476 25.1233C16.067 25.1417 16.0874 25.1417 16.1078 25.1417H16.1283L30.3648 19.06C30.3853 19.0406 30.4057 19.0212 30.4057 19.0008V18.821C30.4057 18.7015 30.4261 18.582 30.4466 18.482ZM46.1129 25.062C46.1323 25.0825 46.1323 25.1029 46.1323 25.1233C46.1323 25.1417 46.1323 25.1621 46.1119 25.1826L39.5471 31.7024C39.5471 31.7228 39.5277 31.7228 39.5063 31.7228H39.4879L32.3186 30.2266C32.2777 30.2266 32.2573 30.2062 32.2573 30.1674C32.2063 29.6163 31.9294 29.1109 31.4923 28.7713C31.4719 28.7509 31.4719 28.7305 31.4719 28.7111L32.7414 20.9146C32.7414 20.8758 32.7822 20.8544 32.8016 20.8544C33.3476 20.7866 33.8423 20.4989 34.1712 20.0578C34.1916 20.0374 34.212 20.0374 34.2324 20.0374H34.2518L46.1129 25.062ZM47.3405 23.9458C47.3814 23.9458 47.3814 23.8866 47.3405 23.8661H47.3415L39.9516 16.5283C39.9322 16.5078 39.9117 16.5078 39.9117 16.5078H39.8913L34.8769 18.6423C34.8564 18.6607 34.836 18.6821 34.836 18.7015C34.836 18.722 34.8564 18.7608 34.8769 18.7608L47.2394 24.006H47.2598C47.2792 24.006 47.2997 24.006 47.2997 23.9856L47.3405 23.9458ZM23.8205 13.0784C23.8001 13.058 23.8001 13.0191 23.8205 12.9783L28.6736 5.44128C28.6736 5.42187 28.694 5.40247 28.7145 5.40247C28.7233 5.40247 28.7283 5.40247 28.7327 5.4041C28.7385 5.40626 28.7433 5.41127 28.7543 5.42289L33.0641 9.70919C33.0845 9.72962 33.0845 9.748 33.0845 9.76945L31.956 16.7672C31.956 16.8081 31.9356 16.8275 31.9151 16.8275C31.6599 16.9019 31.4209 17.0235 31.2105 17.186C31.2105 17.2064 31.1911 17.2064 31.1706 17.2064H31.1502L24.2637 14.2753L24.2611 14.2727C24.2416 14.2532 24.2229 14.2346 24.2229 14.214C24.1807 13.8089 24.0427 13.4197 23.8205 13.0784ZM33.3845 16.9304C33.398 16.9482 33.4118 16.9664 33.4256 16.9664C33.6541 17.0795 33.859 17.2351 34.0292 17.4249C34.0409 17.4367 34.0459 17.4417 34.0519 17.4438C34.0564 17.4454 34.0614 17.4454 34.07 17.4454H34.0905L38.722 15.4712L38.7249 15.4683C38.7443 15.449 38.7628 15.4305 38.7628 15.412C38.7628 15.3926 38.7628 15.3722 38.7424 15.3517L34.4132 11.0644C34.3917 11.044 34.3734 11.044 34.3734 11.044H34.3529C34.3325 11.044 34.3121 11.0644 34.3121 11.1053L33.3654 16.9072C33.3716 16.9134 33.378 16.9219 33.3845 16.9304Z" fill="#C9FA4B"/>
<path fill-rule="evenodd" clip-rule="evenodd" d="M104.571 14.6735H107.792V11.8037H104.571V14.6735ZM114.115 13.1385C113.23 14.0158 112.786 15.272 112.786 16.907V18.2439H110.591V20.6755H112.786V32.8798H116.009V20.6755H118.928V18.2439H116.009V16.9469C116.009 15.3322 116.773 14.5336 118.324 14.5336C118.787 14.5336 119.209 14.5744 119.552 14.6347L119.634 12.0611C119.042 11.9074 118.432 11.8272 117.82 11.8221C116.25 11.8027 115.002 12.2612 114.115 13.1395V13.1385ZM123.036 18.2439L126.076 28.1727L129.017 18.2439H132.46L126.742 35.0919C125.856 37.545 124.365 38.7807 122.271 38.7807C121.746 38.7721 121.224 38.6917 120.721 38.5418V35.9896L121.324 36.0294C122.13 36.0294 122.755 35.8701 123.157 35.5709C123.579 35.2716 123.902 34.7732 124.144 34.0553L124.608 32.7991L119.552 18.2439H123.036ZM104.571 32.8788H107.792V18.2439H104.571V32.8788ZM90.3939 28.8315C90.3939 29.3891 90.495 29.8078 90.7166 30.0478C90.9372 30.3062 91.3212 30.4267 91.9044 30.4063C92.2659 30.4063 92.6489 30.3664 93.0319 30.2663V32.8185C92.2863 33.0381 91.5827 33.1382 90.8974 33.1382C88.4208 33.1382 87.1728 31.7421 87.1728 28.9509V20.6561H84.8157V18.2224H87.1728V14.6735H90.3939V18.2224H92.9308V20.6561H90.3939V28.8315ZM80.2455 24.1857H74.1025C74.2445 23.048 74.607 22.1717 75.1503 21.5528C75.6936 20.9155 76.4198 20.6163 77.3052 20.6163C78.1907 20.6163 78.8964 20.8951 79.3988 21.4538C79.9023 22.0114 80.1852 22.8488 80.2649 23.9457V24.1846H80.2445L80.2455 24.1857ZM73.9616 18.921C74.9596 18.2843 76.1214 17.9518 77.3052 17.9641C79.2579 17.9641 80.7684 18.6013 81.8765 19.8779C82.9233 21.1545 83.4666 22.9489 83.4666 25.2825V26.5979H74.0831C74.1842 27.8153 74.5672 28.7722 75.2719 29.4698C75.9561 30.1673 76.8416 30.5258 77.8884 30.5258C79.359 30.5258 80.5672 29.9069 81.4935 28.6915L83.2245 30.3869C82.6619 31.2634 81.8676 31.9671 80.9297 32.4202C79.9626 32.8992 78.8749 33.1382 77.6872 33.1382C75.6344 33.1382 73.983 32.4795 72.7136 31.1641C71.4451 29.8486 70.8007 28.0931 70.8007 25.9188V25.5205C70.8007 24.0652 71.0826 22.7692 71.6259 21.6131C72.1907 20.457 72.9546 19.5593 73.9616 18.921ZM63.3903 17.9641C61.6593 17.9641 60.2693 18.6228 59.2021 19.9178L59.0999 18.2224H56.0811V32.8594H59.3022V22.4505C59.9476 21.2536 60.9137 20.6561 62.2026 20.6561C63.088 20.6561 63.7325 20.8747 64.1348 21.3332C64.5382 21.7724 64.719 22.4699 64.719 23.3881V32.8594H67.9411V23.1879C67.9003 19.7186 66.3908 17.9641 63.3903 17.9641ZM99.5772 32.8788H96.3541V12.1019H99.5772V32.8788Z" fill="#1E1F21"/>
</svg>
