<svg width="133" height="80" viewBox="0 0 133 80" fill="none" xmlns="http://www.w3.org/2000/svg">
<path fill-rule="evenodd" clip-rule="evenodd" d="M58.4906 20.8845H61.1398L72.8795 37.1815L84.8788 20.8845L101.2 0.183594L74.3859 38.8942L88.2033 57.942H85.4502L72.8795 40.607L60.2568 57.942H57.5556L71.4769 38.8942L58.4906 20.8845ZM31.3232 20.8845H56.257V22.8568H33.6088V37.7005H54.9064V39.6728H33.6088V55.9698H56.5167V57.942H31.3232V20.8845ZM89.1903 20.8845V22.8568L102.229 22.8568V57.942H104.514V22.8568H117.604V20.8845H89.1903Z" fill="black"/>
<path d="M0.129883 20.8845H2.98687L42.3831 79.554L26.1025 57.942L2.51937 23.6872L2.41548 57.942H0.129883V20.8845Z" fill="black"/>
<path fill-rule="evenodd" clip-rule="evenodd" d="M129.237 55.4742C127.458 55.4742 126.263 54.5601 126.174 53.1309H127.408C127.514 53.8899 128.259 54.3718 129.331 54.3718C130.332 54.3718 131.066 53.8566 131.066 53.1475C131.066 52.5382 130.599 52.1726 129.537 51.9233L128.503 51.674C127.052 51.3361 126.391 50.6381 126.391 49.4637C126.391 48.04 127.558 47.0928 129.309 47.0928C130.938 47.0928 132.128 48.04 132.2 49.3862H130.988C130.871 48.6494 130.226 48.1896 129.292 48.1896C128.309 48.1896 127.653 48.6605 127.653 49.3806C127.653 49.9512 128.075 50.278 129.12 50.5218L130.004 50.7378C131.65 51.1201 132.328 51.7848 132.328 52.9869C132.328 54.5158 131.138 55.4742 129.237 55.4742ZM119.62 53.2029C119.62 54.5768 120.615 55.4742 122.066 55.4742C123.611 55.4742 124.545 54.5491 124.545 52.9426V47.2867H123.3V52.937C123.3 53.8289 122.85 54.3053 122.055 54.3053C121.343 54.3053 120.859 53.8622 120.843 53.2029H119.62ZM117.374 55.3745C117.846 55.3745 118.191 55.0144 118.191 54.5491C118.191 54.0837 117.846 53.7237 117.374 53.7237C116.907 53.7237 116.557 54.0837 116.557 54.5491C116.557 55.0144 116.907 55.3745 117.374 55.3745Z" fill="black"/>
</svg>
