<svg width="197" height="40" viewBox="0 0 197 40" fill="none" xmlns="http://www.w3.org/2000/svg">
<path d="M146.716 14.2253V39.1615H138.683V10.3203L146.716 14.2253Z" fill="#F37368"/>
<path fill-rule="evenodd" clip-rule="evenodd" d="M159.1 7.86579L138.682 18.465V10.3204L155.641 1.89673L159.1 7.86579ZM39.0493 39.7751L33.0244 34.5313L61.8098 20.2502L64.4317 26.554L39.0493 39.7751Z" fill="#F7A199"/>
<path fill-rule="evenodd" clip-rule="evenodd" d="M39.0493 39.775L33.0244 34.5312L46.915 0.83667L50.6527 10.7665L39.0493 39.775ZM81.2232 39.1614V12.2727L73.5247 0.83667V39.1614H81.2232Z" fill="#F37368"/>
<path fill-rule="evenodd" clip-rule="evenodd" d="M54.8366 0.83667H46.915L61.3635 39.1614H69.5082L54.8366 0.83667ZM99.2977 27.0001L82.3947 0.83667H73.5248L99.2977 39.1614V27.0001ZM113.802 0.83667H121.779V39.1614H113.802V0.83667ZM126.409 7.86565H138.682H146.715H159.1L155.027 0.83667H126.409V7.86565Z" fill="#F04939"/>
<path d="M182.698 24.6016V39.1616H174.776V24.6016" fill="#F7A199"/>
<path d="M188.165 0.83667L174.776 24.6013H182.698L196.589 0.83667H188.165Z" fill="#F04939"/>
<path d="M174.776 24.6013L160.941 0.83667H169.644L178.96 17.1261L174.776 24.6013Z" fill="#F37368"/>
<path d="M3.29099 5.29956C3.29099 10.5992 6.58234 13.779 13.165 15.4525L20.1382 17.0703C26.3862 18.5207 30.1796 22.091 30.1796 27.8927C30.2354 30.4031 29.3986 32.8576 27.8924 34.8659C27.8924 29.0642 24.88 25.9402 17.6837 24.0435L10.822 22.4815C5.29927 21.2542 1.05957 18.2976 1.05957 11.9938C1.05957 9.59505 1.84057 7.19627 3.29099 5.29956Z" fill="#F04939"/>
<path d="M99.2979 25.0476V0.83667H106.996V39.1614H99.2979V25.0476Z" fill="#F37368"/>
<path fill-rule="evenodd" clip-rule="evenodd" d="M14.8387 0.223145C9.81802 0.223145 5.68989 2.11985 3.29111 5.24385C3.17953 8.47941 4.71198 11.5801 7.5866 13.1654C7.75395 9.26041 10.6548 6.80584 14.9503 6.75006C18.9111 6.75006 21.0867 8.75834 21.9793 11.3245H29.9008C28.6178 4.85335 23.5971 0.223145 14.8387 0.223145ZM27.8925 34.866C27.8925 31.0168 26.5537 28.3391 23.5971 26.4424C23.5413 30.7379 20.4731 33.1924 15.9544 33.1366C12.161 33.1366 9.37173 31.5746 8.31181 28.2275H0.111328C1.3944 35.5354 7.47502 39.7751 16.0102 39.7751C21.0867 39.7751 25.3822 38.0458 27.8925 34.866Z" fill="#F37368"/>
</svg>
