<svg width="80" height="80" viewBox="0 0 80 80" fill="none" xmlns="http://www.w3.org/2000/svg">
<path d="M8.33322 70C7.41322 70 6.6665 70.7467 6.6665 71.6667C6.6665 72.5867 7.41322 73.3334 8.33322 73.3334C9.25322 73.3334 9.99994 72.59 9.99994 71.6667C9.99994 70.7434 9.25322 70 8.33322 70Z" fill="black"/>
<path d="M51.6665 70H38.3332C37.4132 70 36.6665 70.7467 36.6665 71.6667C36.6665 72.5867 37.4132 73.3334 38.3332 73.3334H51.6665C52.5865 73.3334 53.3332 72.5867 53.3332 71.6667C53.3332 70.7467 52.5865 70 51.6665 70Z" fill="black"/>
<path d="M62.82 20.0767C60.5033 8.53328 50.2167 0 38.3333 0C24.5466 0 13.3333 11.21 13.3333 25C13.3333 25.5633 13.3566 26.1367 13.4066 26.75C5.88328 27.5467 0 33.9333 0 41.6667C0 43.0034 0.213281 44.35 0.673281 45.9C0.936563 46.7833 1.86328 47.2967 2.74328 47.0267C3.62656 46.7667 4.13 45.84 3.87 44.9567C3.50328 43.72 3.33328 42.6734 3.33328 41.6667C3.33328 35.2334 8.56656 30 14.8933 29.9934C15.4433 30.0734 16.16 29.8767 16.53 29.4502C16.8467 29.0869 16.99 28.6034 16.92 28.1234C16.7467 26.9267 16.6667 25.9334 16.6667 25.0002C16.6667 13.0569 26.3867 3.33344 38.3334 3.33344C49.0367 3.33344 58.2467 11.3267 59.7567 21.9267C59.8734 22.7634 60.8467 23.3467 61.6667 23.3334C69.9367 23.3334 76.6667 30.0634 76.6667 38.3334C76.6667 45.4502 71.6067 51.6334 64.6367 53.0334C63.7334 53.2167 63.15 54.0934 63.33 54.9967C63.49 55.7867 64.1867 56.3334 64.9633 56.3334C65.0733 56.3334 65.1833 56.3234 65.2933 56.3002C73.8167 54.5833 80 47.03 80 38.3333C80 28.6967 72.53 20.7733 62.82 20.0767Z" fill="black"/>
<path d="M8.33322 56.6667C7.41322 56.6667 6.6665 57.4135 6.6665 58.3335C6.6665 59.2535 7.41322 60.0002 8.33322 60.0002C9.25322 60.0002 9.99994 59.2567 9.99994 58.3333C9.99994 57.41 9.25322 56.6667 8.33322 56.6667Z" fill="black"/>
<path fill-rule="evenodd" clip-rule="evenodd" d="M55 50H5C2.24328 50 0 52.2433 0 55V61.6667C0 62.95 0.5 64.1133 1.3 65C0.5 65.89 0 67.05 0 68.3333V75C0 77.76 2.24328 80 5 80H55C57.7567 80 60 77.7567 60 75V68.3333C60 67.05 59.5 65.8866 58.7 65C59.5 64.1133 60 62.95 60 61.6667V55C60 52.2433 57.7567 50 55 50ZM56.6667 75C56.6667 75.92 55.92 76.6667 55 76.6667H5C4.08 76.6667 3.33328 75.92 3.33328 75V68.3333C3.33328 67.4133 4.08 66.6666 5 66.6666H55C55.92 66.6666 56.6667 67.4133 56.6667 68.3333V75ZM55 63.3334C55.92 63.3334 56.6667 62.5867 56.6667 61.6667V55C56.6667 54.08 55.92 53.3333 55 53.3333H5C4.08 53.3333 3.33328 54.08 3.33328 55V61.6667C3.33328 62.5867 4.08 63.3334 5 63.3334H55Z" fill="black"/>
<path d="M51.6665 56.6667H38.3332C37.4132 56.6667 36.6665 57.4135 36.6665 58.3335C36.6665 59.2535 37.4132 60.0002 38.3332 60.0002H51.6665C52.5865 60.0002 53.3332 59.2535 53.3332 58.3335C53.3331 57.4133 52.5865 56.6667 51.6665 56.6667Z" fill="black"/>
</svg>
