<svg width="80" height="80" viewBox="0 0 80 80" fill="none" xmlns="http://www.w3.org/2000/svg">
<path fill-rule="evenodd" clip-rule="evenodd" d="M39.9998 29.6774C45.6914 29.6774 50.3224 34.3083 50.3224 39.9999C50.3224 45.6916 45.6914 50.3225 39.9998 50.3225C34.3082 50.3225 29.6772 45.6916 29.6772 39.9999C29.6772 34.3083 34.3082 29.6774 39.9998 29.6774ZM32.2579 39.9999C32.2579 44.2696 35.7301 47.7419 39.9998 47.7419C44.2695 47.7419 47.7418 44.2696 47.7418 39.9999C47.7418 35.7303 44.2695 32.258 39.9998 32.258C35.7301 32.258 32.2579 35.7303 32.2579 39.9999Z" fill="black"/>
<path fill-rule="evenodd" clip-rule="evenodd" d="M72.2581 26.8323C73.8206 30.6581 74.6748 34.689 74.8103 38.8374C77.7652 39.4258 80 42.0361 80 45.1613V71.2723L76.5703 78.1329C75.9948 79.2839 74.8374 80 73.5484 80C72.2594 80 71.1019 79.2839 70.5265 78.1316L67.0968 71.2723V61.8903C60.5135 70.0594 50.6568 74.8387 40 74.8387C34.8684 74.8387 29.9252 73.7484 25.3084 71.5974L26.3974 69.2581C30.2826 71.0671 34.4194 72.0568 38.7097 72.2232V56.7742H35.2155L34.3858 54.4206C34.1819 54.3419 33.9794 54.2568 33.7781 54.1677L31.5226 55.2465L24.7561 48.48L25.8348 46.2245C25.7458 46.0219 25.6619 45.8194 25.5819 45.6168L23.2258 44.7845V41.2903H7.79871C7.91097 44.1432 8.39226 46.9368 9.23871 49.6387C9.95226 49.2645 10.7523 49.0323 11.6129 49.0323C14.4594 49.0323 16.7742 51.3471 16.7742 54.1936H19.3548C21.489 54.1936 23.2258 55.9303 23.2258 58.0645V64.5161H20.6452C19.2219 64.5161 18.0645 65.6735 18.0645 67.0968C18.0645 68.52 19.2219 69.6774 20.6452 69.6774H23.2258V76.129C23.2258 78.2632 21.489 80 19.3548 80H3.87097C1.73677 80 0 78.2632 0 76.129V69.6774H2.58065C4.00387 69.6774 5.16129 68.52 5.16129 67.0968C5.16129 65.6735 4.00387 64.5161 2.58065 64.5161H0V58.0645C0 55.9303 1.73677 54.1936 3.87097 54.1936H6.45161C6.45161 53.249 6.72516 52.3755 7.16903 51.6129C5.85161 47.8903 5.16129 43.991 5.16129 40C5.16129 34.0981 6.64645 28.3471 9.46581 23.2258H0V10.3226H7.74194V20.6452H10.3226V5.16129H18.0645V20.6452H20.6452V0H28.3871V7.14839C32.1058 5.83097 36.0026 5.16129 40 5.16129C45.5058 5.16129 50.9239 6.47484 55.7935 8.95226C56.8916 4.27742 60.9097 0.623226 65.7484 0.076129C69.0581 -0.298065 72.3677 0.748387 74.831 2.94968C77.2955 5.15226 78.7097 8.30968 78.7097 11.6129C78.7097 15.5794 76.7135 19.231 73.369 21.3794C72.6839 21.8206 72.2581 22.631 72.2581 23.4942V26.8323ZM2.58065 20.6452H5.16129V12.9032H2.58065V20.6452ZM58.1419 10.4194C58.6581 6.37161 61.9794 3.09935 66.0387 2.64C66.3974 2.6 66.7535 2.58065 67.1084 2.58065C69.3342 2.58065 71.4348 3.37677 73.111 4.87484C75.0284 6.5871 76.129 9.04387 76.129 11.6129C76.129 14.6968 74.5755 17.5368 71.9742 19.209C70.6103 20.0865 69.7781 21.5742 69.6942 23.2258H68.3871V15.2465C69.8852 14.7123 70.9677 13.2929 70.9677 11.6129C70.9677 9.47871 69.231 7.74194 67.0968 7.74194C64.9626 7.74194 63.2258 9.47871 63.2258 11.6129C63.2258 13.2929 64.3084 14.7123 65.8064 15.2465V23.2258H64.4968C64.4013 21.56 63.5794 20.0787 62.2413 19.2232C59.2619 17.32 57.6916 13.9471 58.1419 10.4194ZM69.6774 27.0968V25.8065H64.5161V27.0968C64.5161 27.8077 65.0955 28.3871 65.8064 28.3871H68.3871C69.0981 28.3871 69.6774 27.8077 69.6774 27.0968ZM65.8064 11.6129C65.8064 10.9019 66.3858 10.3226 67.0968 10.3226C67.8077 10.3226 68.3871 10.9019 68.3871 11.6129C68.3871 12.3239 67.8077 12.9032 67.0968 12.9032C66.3858 12.9032 65.8064 12.3239 65.8064 11.6129ZM55.4877 11.7135C51.1381 9.32903 46.271 7.98323 41.2903 7.78452V23.2258H44.7845L45.6142 25.5794C45.8181 25.6581 46.0206 25.7432 46.2219 25.8323L48.4774 24.7535L55.2439 31.52L54.1652 33.7755C54.2542 33.9781 54.3381 34.1806 54.4181 34.3832L56.7742 35.2155V38.7097H72.2258C72.1123 35.7845 71.6065 32.9239 70.7226 30.1626C70.071 30.6606 69.2671 30.9677 68.3858 30.9677H65.8052C63.671 30.9677 61.9342 29.231 61.9342 27.0968V23.5484C61.9342 22.649 61.52 21.8245 60.8503 21.3974C57.4826 19.2452 55.5187 15.6335 55.4877 11.7135ZM23.2258 2.58065H25.8065V20.6452H23.2258V2.58065ZM15.4839 7.74194H12.9032V20.6452H15.4839V7.74194ZM9.03226 56.7742V54.1936C9.03226 52.7703 10.1897 51.6129 11.6129 51.6129C13.0361 51.6129 14.1935 52.7703 14.1935 54.1936V56.7742H19.3548C20.0658 56.7742 20.6452 57.3535 20.6452 58.0645V61.9355C17.7987 61.9355 15.4839 64.2503 15.4839 67.0968C15.4839 69.9432 17.7987 72.2581 20.6452 72.2581V76.129C20.6452 76.84 20.0658 77.4194 19.3548 77.4194H3.87097C3.16 77.4194 2.58065 76.84 2.58065 76.129V72.2581C5.4271 72.2581 7.74194 69.9432 7.74194 67.0968C7.74194 64.2503 5.4271 61.9355 2.58065 61.9355V58.0645C2.58065 57.3535 3.16 56.7742 3.87097 56.7742H9.03226ZM23.2258 38.7097V35.2155L25.5794 34.3858C25.6581 34.1819 25.7432 33.9794 25.8323 33.7781L24.7535 31.5226L31.52 24.7561L33.7755 25.8348C33.9781 25.7458 34.1806 25.6619 34.3832 25.5819L35.2155 23.2258H38.7097V7.77419C35.151 7.91226 31.689 8.62968 28.3871 9.90581V23.2258H12.4606C9.60516 27.9045 8.00516 33.2168 7.7871 38.7097H23.2258ZM37.0426 54.1936L36.409 52.3974L35.8181 52.1948C35.3239 52.0258 34.8258 51.8181 34.3381 51.5781L33.7768 51.3032L32.0555 52.1264L27.8723 47.9432L28.6955 46.2219L28.4206 45.6606C28.1806 45.1729 27.9742 44.6748 27.8039 44.1806L27.6013 43.5897L25.8065 42.9574V37.0413L27.6026 36.4077L27.8052 35.8168C27.9742 35.3226 28.1819 34.8245 28.4219 34.3368L28.6968 33.7755L27.8735 32.0542L32.0568 27.871L33.7781 28.6942L34.3394 28.4194C34.8271 28.1794 35.3252 27.9729 35.8194 27.8026L36.4103 27.6L37.0426 25.8065H42.9587L43.5923 27.6026L44.1832 27.8052C44.6774 27.9742 45.1755 28.1819 45.6632 28.4219L46.2245 28.6968L47.9458 27.8735L52.129 32.0568L51.3058 33.7781L51.5806 34.3394C51.8206 34.8271 52.0271 35.3252 52.1974 35.8194L52.4 36.4103L54.1936 37.0426V42.9587L52.3974 43.5923L52.1948 44.1832C52.0258 44.6774 51.8181 45.1755 51.5781 45.6632L51.3032 46.2245L52.1264 47.9458L47.9432 52.129L46.2219 51.3058L45.6606 51.5806C45.1729 51.8206 44.6748 52.0271 44.1806 52.1974L43.5897 52.4L42.9574 54.1936H37.0426ZM67.0968 57.4929V45.1613C67.0968 43.7032 67.6013 42.3716 68.4206 41.2903H56.7742V44.7845L54.4206 45.6142C54.3419 45.8181 54.2568 46.0206 54.1677 46.2219L55.2465 48.4774L48.48 55.2439L46.2245 54.1652C46.0219 54.2542 45.8194 54.3381 45.6168 54.4181L44.7845 56.7742H41.2903V72.2168C51.8026 71.8039 61.3523 66.3781 67.0968 57.4929ZM72.2581 49.0323V69.6774H69.6774V49.0323H72.2581ZM72.8361 76.9794C73.1071 77.5226 73.9897 77.5226 74.2619 76.9794L76.6219 72.2581H70.4748L72.8361 76.9794ZM74.8387 69.6774V49.0323H77.4193V69.6774H74.8387ZM69.6774 46.4516H77.4194V45.1613C77.4194 43.0271 75.6826 41.2903 73.5484 41.2903C71.4142 41.2903 69.6774 43.0271 69.6774 45.1613V46.4516Z" fill="black"/>
<path d="M44.045 69.4038C50.7792 68.4851 57.0527 65.2296 61.7082 60.2361L59.8205 58.4761C55.5689 63.0361 49.8424 66.009 43.6953 66.8477L44.045 69.4038Z" fill="black"/>
<path d="M65.7057 54.8387L63.4721 53.5483C62.9844 54.3922 62.4425 55.2206 61.8618 56.0129L63.9431 57.5393C64.5792 56.6709 65.1715 55.7638 65.7057 54.8387Z" fill="black"/>
</svg>
