<svg width="238" height="61" viewBox="0 0 238 61" fill="none" xmlns="http://www.w3.org/2000/svg">
<ellipse cx="36" cy="31.5" rx="24" ry="24.5" stroke="#231F20" stroke-width="2"/>
<circle cx="2" cy="34" r="2" fill="#231F20"/>
<circle cx="66" cy="25" r="3" fill="#231F20"/>
<circle cx="57.5" cy="6.5" r="2.5" fill="#231F20"/>
<circle cx="14.5" cy="5.5" r="2.5" fill="#231F20"/>
<circle cx="14.5" cy="48.5" r="2.5" fill="#231F20"/>
<circle cx="61.5" cy="48.5" r="2.5" fill="#231F20"/>
<path fill-rule="evenodd" clip-rule="evenodd" d="M40.3277 8.68643C40.3277 8.68643 45.3076 12.382 47.405 19.7458C49.5025 27.1096 50.4193 34.7127 47.405 43.7016C44.3907 52.6905 37 56 37 56H41.2811C41.2811 56 46.8752 49.9211 48.9544 41.792C51.0337 33.663 50.2483 14.9855 44.4432 9.88908C38.6382 4.79268 40.3277 8.68643 40.3277 8.68643Z" fill="#231F20"/>
<path fill-rule="evenodd" clip-rule="evenodd" d="M12.8149 23.4943C12.8149 23.4943 21.4393 17 34.9048 17C48.3703 17 59.3317 23.4943 59.3317 23.4943L60 27C60 27 53.4249 18.4043 34.9048 18.4043C16.3847 18.4043 12 27 12 27L12.8149 23.4943Z" fill="#231F20"/>
<path fill-rule="evenodd" clip-rule="evenodd" d="M58.4061 18C58.4061 18 70.2912 28.6609 58.4061 39.6421C46.5209 50.6234 25.7531 45.0887 20.8843 42.7534C16.0156 40.4181 8.46679 34.1473 8.46679 29.522C8.46679 24.8967 10.8336 22.2213 10.8336 22.2213C10.8336 22.2213 2.34864 26.0523 6.20503 34.4028C10.0614 42.7534 38.5781 56.6154 55.7037 43.7892C72.8294 30.9629 58.4061 18 58.4061 18Z" fill="#231F20"/>
<path fill-rule="evenodd" clip-rule="evenodd" d="M44.4953 5.69031C44.4953 5.69031 38.8018 0.977356 30.778 6.39011C22.7543 11.8029 19.1884 25.6496 19.8859 33.1363C20.5835 40.623 22.2933 49.8692 28.9686 55.8333C35.6439 61.7973 41.4334 60.3599 43.6507 59.2964C45.8681 58.233 49.136 55.5902 50.8201 53.6921C52.5042 51.794 42.1938 69.3765 27.0723 55.8333C11.9508 42.2901 15.6694 17.0709 26.321 5.69031C36.9725 -5.69031 44.4953 5.69031 44.4953 5.69031Z" fill="#231F20"/>
<path d="M94.136 24.08C92.816 21.776 90.344 20.84 87.68 20.84C83.48 20.84 81.08 23.144 81.08 26.384C81.08 28.424 82.16 30.464 85.832 31.376L88.04 31.928C89.552 32.288 89.96 32.624 89.96 33.464C89.96 34.424 88.976 34.952 87.32 34.952C85.496 34.952 84.2 34.136 83.48 32.816L80.456 35C81.584 37.136 84.128 38.288 87.296 38.288C92.024 38.288 94.424 36.056 94.424 32.672C94.424 30.44 93.272 28.712 89.096 27.8L87.56 27.464C86 27.128 85.448 26.6 85.448 25.784C85.448 24.992 86.072 24.392 87.56 24.392C89.216 24.392 90.152 24.968 90.968 26.144L94.136 24.08ZM105.335 21.224L102.767 31.376L100.439 21.2H95.519L100.199 38H104.831L107.303 27.944L109.727 38H114.479L119.183 21.2H114.431L112.007 31.472L109.463 21.224H105.335ZM121.321 38H126.169V21.2H121.321V38ZM130.227 38H135.075V32H142.083V28.04H135.075V25.064H143.259V21.2H130.227V38ZM144.766 21.2V25.28H149.734V38H154.558V25.28H159.526V21.2H144.766ZM174.011 24.08C172.691 21.776 170.219 20.84 167.555 20.84C163.355 20.84 160.955 23.144 160.955 26.384C160.955 28.424 162.035 30.464 165.707 31.376L167.915 31.928C169.427 32.288 169.835 32.624 169.835 33.464C169.835 34.424 168.851 34.952 167.195 34.952C165.371 34.952 164.075 34.136 163.355 32.816L160.331 35C161.459 37.136 164.003 38.288 167.171 38.288C171.899 38.288 174.299 36.056 174.299 32.672C174.299 30.44 173.147 28.712 168.971 27.8L167.435 27.464C165.875 27.128 165.323 26.6 165.323 25.784C165.323 24.992 165.947 24.392 167.435 24.392C169.091 24.392 170.027 24.968 170.843 26.144L174.011 24.08ZM177.266 38H182.114V21.2H177.266V38ZM192.916 38.36C195.124 38.36 196.684 37.496 197.548 36.104L197.836 38H201.124V28.616H193.852V32.168H196.78C196.564 33.824 195.268 34.52 193.852 34.52C191.476 34.52 190.156 33.344 190.156 29.624C190.156 26 191.404 24.824 193.756 24.824C195.268 24.824 196.012 25.256 196.684 26.624L200.572 24.656C199.492 21.968 197.236 20.84 193.804 20.84C188.116 20.84 185.284 23.576 185.284 29.576C185.284 35.504 188.236 38.36 192.916 38.36ZM215.162 38H220.01V21.2H215.162V27.584H209.114V21.2H204.266V38H209.114V31.688H215.162V38ZM222.415 21.2V25.28H227.383V38H232.207V25.28H237.175V21.2H222.415Z" fill="#231F20"/>
<path d="M83.696 46.572L85.328 51.384H82.088L83.696 46.572ZM86.216 54H87.344L84.404 45.6H83.06L80.12 54H81.212L81.788 52.284H85.64L86.216 54ZM97.1411 50.748C97.1411 52.548 96.2171 53.28 94.8011 53.28C93.3851 53.28 92.4611 52.548 92.4611 50.748V45.6H91.3931V50.7C91.3931 52.968 92.6531 54.144 94.8011 54.144C96.9251 54.144 98.2091 52.968 98.2091 50.7V45.6H97.1411V50.748ZM105.937 46.944C105.372 45.996 104.569 45.456 102.997 45.456C101.113 45.456 100.104 46.404 100.104 47.784C100.104 48.984 100.896 49.764 102.48 50.124L103.333 50.316C104.725 50.628 105.121 50.976 105.121 51.84C105.121 52.764 104.497 53.316 103.033 53.316C101.893 53.316 101.233 52.908 100.609 51.984L99.7685 52.512C100.501 53.736 101.665 54.144 103.057 54.144C105.001 54.144 106.141 53.292 106.141 51.732C106.141 50.412 105.349 49.704 103.489 49.308L102.637 49.128C101.461 48.876 101.101 48.372 101.101 47.736C101.101 46.908 101.593 46.284 102.997 46.284C104.053 46.284 104.653 46.656 105.097 47.472L105.937 46.944ZM107.003 45.6V46.512H109.751V54H110.819V46.512H113.567V45.6H107.003ZM123.163 46.944C122.599 45.996 121.795 45.456 120.223 45.456C118.339 45.456 117.331 46.404 117.331 47.784C117.331 48.984 118.123 49.764 119.707 50.124L120.559 50.316C121.951 50.628 122.347 50.976 122.347 51.84C122.347 52.764 121.723 53.316 120.259 53.316C119.119 53.316 118.459 52.908 117.835 51.984L116.995 52.512C117.727 53.736 118.891 54.144 120.283 54.144C122.227 54.144 123.367 53.292 123.367 51.732C123.367 50.412 122.575 49.704 120.715 49.308L119.863 49.128C118.687 48.876 118.327 48.372 118.327 47.736C118.327 46.908 118.819 46.284 120.223 46.284C121.279 46.284 121.879 46.656 122.323 47.472L123.163 46.944ZM127.53 54.144C128.682 54.144 129.57 53.712 130.038 52.692L129.27 52.296C128.91 53.1 128.394 53.316 127.554 53.316C126.462 53.316 125.862 52.8 125.79 51.384H130.026C130.038 51.192 130.05 51.012 130.05 50.832C130.05 49.212 129.282 48.012 127.554 48.012C125.742 48.012 124.77 49.08 124.77 51.084C124.77 53.196 125.778 54.144 127.53 54.144ZM127.506 48.828C128.43 48.828 128.982 49.332 129.03 50.592H125.802C125.91 49.32 126.498 48.828 127.506 48.828ZM131.764 54H132.796V51.192C132.832 49.692 133.552 48.9 134.992 49.044V48.06C133.996 47.988 133.168 48.432 132.76 49.392L132.652 48.156H131.764V54ZM135.666 48.156L138.03 54H139.17L141.522 48.156H140.466L138.618 53.016L136.758 48.156H135.666ZM142.553 46.344C142.553 46.788 142.817 47.028 143.261 47.028C143.705 47.028 143.969 46.788 143.969 46.344C143.969 45.9 143.705 45.672 143.261 45.672C142.817 45.672 142.553 45.9 142.553 46.344ZM142.745 48.156V54H143.777V48.156H142.745ZM148.39 54.144C149.566 54.144 150.418 53.712 150.874 52.692L150.094 52.284C149.722 53.052 149.23 53.316 148.39 53.316C147.214 53.316 146.638 52.728 146.638 51.084C146.638 49.404 147.178 48.84 148.402 48.84C149.182 48.84 149.746 49.188 150.058 49.8L150.802 49.32C150.346 48.48 149.614 48.012 148.402 48.012C146.614 48.012 145.606 48.96 145.606 51.072C145.606 53.232 146.614 54.144 148.39 54.144ZM154.753 54.144C155.905 54.144 156.793 53.712 157.261 52.692L156.493 52.296C156.133 53.1 155.617 53.316 154.777 53.316C153.685 53.316 153.085 52.8 153.013 51.384H157.249C157.261 51.192 157.273 51.012 157.273 50.832C157.273 49.212 156.505 48.012 154.777 48.012C152.965 48.012 151.993 49.08 151.993 51.084C151.993 53.196 153.001 54.144 154.753 54.144ZM154.729 48.828C155.653 48.828 156.205 49.332 156.253 50.592H153.025C153.133 49.32 153.721 48.828 154.729 48.828Z" fill="#231F20"/>
</svg>
