<svg width="80" height="80" viewBox="0 0 80 80" fill="none" xmlns="http://www.w3.org/2000/svg">
<path fill-rule="evenodd" clip-rule="evenodd" d="M78.9911 61.2973L76.2559 60.9087C76.0442 60.2377 75.775 59.5873 75.4506 58.9633L77.1108 56.7519C77.4616 56.2845 77.4155 55.6303 77.0023 55.217L73.9823 52.1945C73.5687 51.7806 72.9136 51.7344 72.4459 52.0861L70.2375 53.7469C69.6144 53.4227 68.9648 53.1534 68.295 52.9416L67.9067 50.2034C67.8247 49.6244 67.3289 49.1942 66.7442 49.1942H62.4734C61.8886 49.1942 61.3931 49.6245 61.3109 50.2034L60.9225 52.9416C60.2527 53.1534 59.6033 53.4227 58.98 53.7469L57.0656 52.3072C59.9391 49.1484 61.7241 45.2502 62.2377 41.0391H62.7347C63.3831 41.0391 63.9089 40.5133 63.9089 39.8648C63.9089 39.2164 63.3833 38.6906 62.7347 38.6906H62.3902C62.3904 38.6637 62.3909 38.6369 62.3913 38.6101L62.3913 38.6093L62.3922 38.5534C62.3925 38.5321 62.3927 38.5108 62.3927 38.4894C62.3927 36.667 62.1542 34.8588 61.6838 33.1148C61.5148 32.4888 60.8708 32.1181 60.2442 32.287C59.6181 32.4559 59.2475 33.1005 59.4164 33.7266C59.833 35.2711 60.0444 36.8734 60.0444 38.4894C60.0444 43.5238 58.0381 48.2095 54.3953 51.6836L54.3904 51.6884C54.3854 51.6932 54.3804 51.698 54.3756 51.703C54.2273 51.8511 50.7333 55.3744 49.6819 59.06C49.4497 59.8742 49.3139 61.0928 49.2345 62.2658C49.2239 62.3291 49.2177 62.3939 49.2177 62.46V62.5262C49.1733 63.25 49.1495 63.9428 49.1369 64.497H45.8066C45.6784 62.8753 45.4675 59.6031 45.5289 56.223C45.5617 54.4086 45.6647 52.915 45.8108 51.6864C47.3366 51.4538 48.9911 51.0487 50.1672 50.3436C52.3003 49.0647 52.7516 46.4712 51.8348 44.8517C51.1125 43.5756 49.3398 42.5813 46.7217 43.9778C45.383 44.6919 44.452 46.3286 43.8759 48.9809C43.835 49.1694 43.7958 49.3634 43.7583 49.5627C42.9598 49.6291 42.2714 49.6544 41.8369 49.652C41.4045 49.6538 40.7172 49.6298 39.9194 49.5638C39.8819 49.3641 39.8427 49.1698 39.8017 48.9811C39.2256 46.3286 38.2948 44.692 36.9559 43.9778C34.3377 42.5814 32.565 43.5758 31.8427 44.8517C31.367 45.6919 31.2588 46.7602 31.5453 47.7827C31.8458 48.8545 32.5436 49.7639 33.5103 50.3436C34.6864 51.0487 36.3413 51.4539 37.8667 51.6866C38.0128 52.9152 38.1156 54.4086 38.1486 56.2231C38.21 59.6034 37.9991 62.8756 37.8709 64.4972H34.5406C34.5063 62.9858 34.3894 60.4412 33.9955 59.0602C32.95 55.3945 29.4522 51.8541 29.3039 51.7052C29.2969 51.698 29.2894 51.6908 29.2822 51.6838C25.6392 48.2097 23.6331 43.5239 23.6331 38.4895C23.6331 28.442 31.8002 20.2678 41.8387 20.2678C48.4436 20.2678 54.5438 23.86 57.7588 29.6428C58.0741 30.2097 58.7887 30.4138 59.3556 30.0984C59.9223 29.7833 60.1264 29.0684 59.8112 28.5016C58.6077 26.3369 57.0441 24.4461 55.222 22.883H56.5934C57.2419 22.883 57.7677 22.3572 57.7677 21.7087C57.7677 21.0603 57.2419 20.5345 56.5934 20.5345H55.0278C54.3794 20.5345 53.8536 21.0602 53.8536 21.7087C53.8536 21.7423 53.8558 21.7755 53.8586 21.8084C50.7105 19.5381 46.9411 18.172 42.9673 17.9533L39.36 17.4408C39.0055 16.2312 38.5231 15.0655 37.9192 13.9598L40.6205 10.3619C40.9714 9.89453 40.9252 9.24031 40.5122 8.82703L36.0013 4.31234C35.5877 3.89844 34.9325 3.85219 34.4648 4.20391L30.8709 6.90625C29.7666 6.30219 28.6022 5.81953 27.3942 5.46484L26.7623 1.00937C26.68 0.430312 26.1845 0 25.5997 0H19.2203C18.6355 0 18.14 0.430312 18.0578 1.00922L17.4258 5.46484C16.2178 5.81953 15.0536 6.30219 13.9491 6.90625L10.3552 4.20344C9.88766 3.85187 9.23266 3.89797 8.81875 4.31187L4.30781 8.82656C3.89484 9.24 3.84859 9.89422 4.19953 10.3614L6.90078 13.9595C6.29703 15.0652 5.81453 16.2308 5.46 17.4403L1.00891 18.0727C0.430156 18.1552 0 18.6508 0 19.2353V25.62C0 26.2047 0.430156 26.7003 1.00906 26.7825L5.46016 27.4148C5.81453 28.6244 6.29703 29.79 6.90094 30.8956L4.19953 34.4938C3.84875 34.9611 3.89484 35.6153 4.30797 36.0286L8.81891 40.5433C9.23234 40.957 9.8875 41.0033 10.3553 40.6517L13.9492 37.9491C15.0538 38.5531 16.218 39.0358 17.4259 39.3905L18.058 43.8461C18.1402 44.4252 18.6358 44.8553 19.2205 44.8553H22.2802C23.3147 48.0566 25.1352 50.97 27.6491 53.3711C27.8286 53.5536 30.8764 56.6858 31.7372 59.7039C32.1273 61.0716 32.2081 64.4736 32.2064 65.6691V65.67V65.6709V69.6C32.2064 72.1941 34.055 74.3638 36.503 74.8603C36.9987 77.3022 39.1606 79.1456 41.745 79.1456H41.9325C44.5169 79.1456 46.6787 77.3022 47.1745 74.8603C49.6227 74.3638 51.4712 72.1941 51.4712 69.6V68.0734L52.962 68.2853C53.1738 68.9561 53.443 69.6066 53.7673 70.2308L52.1072 72.4422C51.7563 72.9095 51.8025 73.5637 52.2155 73.977L55.2355 76.9995C55.6489 77.4133 56.3041 77.4597 56.7719 77.108L58.9803 75.4472C59.6034 75.7714 60.2528 76.0406 60.9228 76.2525L61.3112 78.9908C61.3934 79.5698 61.8891 80 62.4738 80H66.7447C67.3295 80 67.8252 79.5697 67.9072 78.9908L68.2955 76.2527C68.9653 76.0408 69.6148 75.7716 70.238 75.4473L72.4464 77.1081C72.9141 77.4598 73.5692 77.4136 73.9828 76.9997L77.0028 73.9772C77.4158 73.5638 77.462 72.9095 77.1113 72.4423L75.4511 70.2309C75.7753 69.6069 76.0445 68.9564 76.2564 68.2855L78.9916 67.8969C79.5703 67.8147 80.0005 67.3191 80.0005 66.7344V62.46C80 61.8752 79.5698 61.3795 78.9911 61.2973ZM47.8267 46.0494C48.1112 45.8975 48.6463 45.6498 49.1058 45.6498C49.3873 45.6498 49.6409 45.743 49.7909 46.0081C50.1125 46.5763 49.9517 47.7341 48.9594 48.3292C48.2694 48.743 47.2725 49.0333 46.2264 49.2344C46.7855 46.8461 47.5203 46.2128 47.8267 46.0494ZM33.8864 46.0081C33.5647 46.5763 33.7256 47.7341 34.718 48.3292C35.4094 48.7438 36.4062 49.0345 37.4514 49.2356C36.8922 46.8467 36.1572 46.2128 35.8508 46.0494C35.5662 45.8975 35.0312 45.6498 34.5717 45.6498C34.2898 45.6498 34.0366 45.743 33.8864 46.0081ZM20.2397 42.5067L19.642 38.2934C19.5747 37.8183 19.2248 37.4319 18.7586 37.3178C17.2459 36.9477 15.8039 36.3498 14.4731 35.5411C14.0627 35.2916 13.5416 35.3173 13.1577 35.6061L9.75891 38.1619L6.68875 35.0894L9.24375 31.6863C9.53172 31.3027 9.55734 30.7823 9.30859 30.3722C8.50047 29.0402 7.90312 27.597 7.53312 26.0825C7.41922 25.6162 7.03297 25.2663 6.55766 25.1988L2.34828 24.6008V20.2544L6.55781 19.6562C7.03297 19.5887 7.41937 19.2388 7.53328 18.7725C7.90328 17.258 8.50062 15.8148 9.30875 14.483C9.5575 14.0728 9.53187 13.5527 9.24391 13.1689L6.68891 9.76594L9.75906 6.69344L13.1578 9.24922C13.5417 9.53797 14.0628 9.56375 14.4733 9.31422C15.8041 8.50547 17.2459 7.90781 18.7588 7.5375C19.225 7.42344 19.5748 7.03703 19.6422 6.56188L20.2398 2.34828H24.5805L25.1781 6.56172C25.2456 7.03687 25.5953 7.42328 26.0616 7.53734C27.5744 7.90766 29.0163 8.50562 30.347 9.31422C30.7577 9.56375 31.2786 9.53781 31.6625 9.24922L35.0611 6.69344L38.1313 9.76594L35.5764 13.1689C35.2883 13.5525 35.2627 14.0728 35.5116 14.483C36.2614 15.7189 36.8273 17.0514 37.2009 18.4472C35.2611 18.8967 33.4261 19.6228 31.7384 20.5798C31.2009 15.9577 27.2669 12.3575 22.5063 12.3575C19.3872 12.3575 16.492 13.9106 14.7617 16.5122C14.4027 17.052 14.5492 17.7809 15.0892 18.1402C15.6294 18.4992 16.3581 18.3527 16.7172 17.8127C18.0109 15.8672 20.1752 14.7058 22.5063 14.7058C26.3378 14.7058 29.455 17.8261 29.455 21.6614C29.455 21.8027 29.4498 21.9475 29.4402 22.0945C27.1791 23.8114 25.2831 25.985 23.8897 28.477C23.4336 28.5698 22.97 28.6169 22.5061 28.6169C18.6745 28.6169 15.5573 25.4966 15.5573 21.6613C15.5573 21.0128 15.0317 20.487 14.3831 20.487C13.7345 20.487 13.2089 21.0128 13.2089 21.6613C13.2089 26.7914 17.3795 30.9652 22.5059 30.9652C22.5642 30.9652 22.6225 30.9638 22.6807 30.9624L22.6809 30.9624L22.7097 30.9617C21.7902 33.2941 21.2847 35.8336 21.2847 38.4891C21.2847 39.8558 21.417 41.1992 21.6731 42.5067H20.2397ZM52.9619 60.9088C53.1736 60.238 53.4428 59.5875 53.7672 58.9633L52.8009 57.6763C52.4414 58.3347 52.1347 59.022 51.9402 59.7041C51.84 60.0552 51.7605 60.5408 51.6972 61.0884L52.9619 60.9088ZM40.4967 56.2C40.4689 54.6395 40.3884 53.2162 40.2566 51.9409C41.1489 51.9989 41.7648 52.0013 41.8367 51.9998L41.8601 51.9997H41.8601C41.9978 51.9988 42.5903 51.9948 43.4206 51.9408C43.2886 53.2161 43.2083 54.6394 43.1805 56.1998C43.1202 59.58 43.3166 62.7814 43.4497 64.4967H40.2275C40.3608 62.7816 40.557 59.5802 40.4967 56.2ZM41.7448 76.7973H41.9323C43.1711 76.7973 44.2366 76.042 44.6939 74.9673H38.9831C39.4408 76.042 40.5062 76.7973 41.7448 76.7973ZM49.1227 69.6C49.1227 71.2647 47.7698 72.6189 46.1072 72.6189H37.57C35.9073 72.6189 34.5547 71.2647 34.5547 69.6V66.8452H49.1228V69.6H49.1227ZM75.167 66.068L77.6517 65.715V63.4789L75.167 63.1259C74.6917 63.0584 74.3055 62.7083 74.1916 62.242C73.9533 61.2667 73.5686 60.3372 73.0481 59.4794C72.7994 59.0692 72.825 58.5491 73.113 58.1653L74.6214 56.1562L73.0423 54.5758L71.0364 56.0842C70.6523 56.373 70.1314 56.3988 69.7209 56.1492C68.8641 55.6286 67.9355 55.2436 66.9611 55.005C66.4948 54.8909 66.145 54.5045 66.0777 54.0294L65.725 51.5422H63.4928L63.14 54.0294C63.0725 54.5045 62.7227 54.8909 62.2566 55.005C61.2822 55.2434 60.3536 55.6284 59.4967 56.1492C59.0863 56.3986 58.5653 56.373 58.1813 56.0842L56.1753 54.5758L54.5961 56.1562L56.1045 58.1653C56.3925 58.5491 56.4183 59.0692 56.1694 59.4794C55.6489 60.3373 55.2642 61.2669 55.0259 62.242C54.912 62.7084 54.5258 63.0584 54.0505 63.1259L51.5658 63.4789V65.715L54.0505 66.068C54.5258 66.1355 54.912 66.4856 55.0259 66.9519C55.2642 67.927 55.6489 68.8564 56.1694 69.7145C56.4181 70.1247 56.3925 70.645 56.1045 71.0286L54.5961 73.0377L56.1753 74.6181L58.1813 73.1097C58.5653 72.8211 59.0864 72.7953 59.4967 73.0447C60.3536 73.5653 61.282 73.9503 62.2566 74.1888C62.7228 74.3028 63.0727 74.6892 63.14 75.1644L63.4928 77.6517H65.725L66.0777 75.1645C66.1452 74.6894 66.495 74.303 66.9611 74.1889C67.9355 73.9505 68.8641 73.5655 69.7209 73.0447C70.1314 72.795 70.6523 72.8208 71.0364 73.1097L73.0422 74.6181L74.6214 73.0377L73.113 71.0286C72.825 70.6448 72.7994 70.1247 73.0481 69.7145C73.5686 68.8566 73.9533 67.9272 74.1916 66.9519C74.3055 66.4855 74.6917 66.1355 75.167 66.068Z" fill="black"/>
<path d="M64.6088 57.7031C60.8102 57.7031 57.7197 60.7956 57.7197 64.5969C57.7197 65.2453 58.2454 65.7711 58.8939 65.7711C59.5424 65.7711 60.0682 65.2453 60.0682 64.5969C60.0682 62.0905 62.1052 60.0514 64.6089 60.0514C67.1127 60.0514 69.1496 62.0905 69.1496 64.5969C69.1496 67.1033 67.1127 69.1423 64.6089 69.1423C63.4985 69.1423 62.4297 68.737 61.5997 68.0009C61.1144 67.5705 60.3724 67.6153 59.9422 68.1005C59.5119 68.5856 59.5564 69.3278 60.0418 69.758C61.3019 70.8755 62.9239 71.4908 64.6091 71.4908C68.4077 71.4908 71.4982 68.3983 71.4982 64.597C71.4977 60.7956 68.4074 57.7031 64.6088 57.7031Z" fill="black"/>
<path d="M60.5072 22.8829H62.0729C62.7213 22.8829 63.2471 22.3571 63.2471 21.7086C63.2471 21.0602 62.7213 20.5344 62.0729 20.5344H60.5072C59.8588 20.5344 59.333 21.06 59.333 21.7086C59.333 22.3571 59.8586 22.8829 60.5072 22.8829Z" fill="black"/>
<path d="M70.6177 24.0171C71.0052 24.2516 71.3752 24.5216 71.7175 24.8194C72.2336 25.2686 73.045 25.1711 73.4433 24.6168C73.7919 24.1316 73.7094 23.4399 73.2592 23.048C72.8156 22.6619 72.336 22.3119 71.8336 22.0079C71.2791 21.6721 70.5569 21.8496 70.2211 22.4044C69.8853 22.9594 70.0628 23.6813 70.6177 24.0171Z" fill="black"/>
<path d="M65.9867 22.8828C66.4822 22.8828 66.9697 22.9028 67.4644 22.9355C68.0861 22.9766 68.648 22.5163 68.7169 21.8938C68.7883 21.2492 68.3236 20.6688 67.6792 20.5975C67.1159 20.535 66.5523 20.5345 65.9867 20.5345C65.3383 20.5345 64.8125 21.0602 64.8125 21.7088C64.8125 22.357 65.3383 22.8828 65.9867 22.8828Z" fill="black"/>
<path d="M67.9898 38.5578C67.5458 38.6401 67.0898 38.6847 66.6345 38.69C65.9861 38.6976 65.4667 39.2295 65.4742 39.878C65.4819 40.5217 66.0061 41.0383 66.648 41.0383H66.662C67.2514 41.0314 67.842 40.9736 68.418 40.8667C69.0556 40.7484 69.4765 40.1356 69.3583 39.4981C69.2401 38.8605 68.6278 38.4389 67.9898 38.5578Z" fill="black"/>
<path d="M72.1391 36.3594C71.8191 36.6815 71.4694 36.9778 71.0999 37.24C70.619 37.5812 70.4655 38.25 70.7519 38.7662C71.0868 39.3695 71.895 39.5553 72.4588 39.1553C72.9377 38.8156 73.3907 38.4317 73.805 38.0145C74.2621 37.5545 74.2596 36.8109 73.7996 36.354C73.3396 35.8969 72.5961 35.8992 72.1391 36.3594Z" fill="black"/>
<path d="M74.6533 35.0153C75.2548 35.2356 75.9397 34.9175 76.1599 34.3168C76.3622 33.7648 76.5176 33.1911 76.6216 32.6117C76.7363 31.9734 76.3118 31.3631 75.6735 31.2484C75.0358 31.1339 74.4249 31.5582 74.3102 32.1964C74.2301 32.6423 74.1105 33.0839 73.9547 33.5086C73.7318 34.1176 74.0444 34.792 74.6533 35.0153Z" fill="black"/>
<path d="M73.7374 27.5322C73.9241 27.945 74.0757 28.3769 74.1882 28.8155C74.3518 29.4533 75.0297 29.8349 75.6605 29.6494C76.2578 29.4736 76.6171 28.8342 76.463 28.2324C76.3169 27.6624 76.1197 27.1013 75.8772 26.5647C75.6102 25.9739 74.9147 25.7113 74.3236 25.9784C73.7327 26.2458 73.4702 26.9413 73.7374 27.5322Z" fill="black"/>
<path d="M5.54209 48.4419C4.93615 48.2116 4.25772 48.516 4.02725 49.1221C3.81819 49.6717 3.656 50.2435 3.54475 50.8214C3.4224 51.4582 3.83928 52.0738 4.47615 52.1961C4.551 52.2105 4.62553 52.2175 4.69912 52.2175C5.25084 52.2175 5.74287 51.8267 5.85084 51.2647C5.93631 50.8199 6.06131 50.3799 6.22209 49.9569C6.45272 49.3507 6.14819 48.6724 5.54209 48.4419Z" fill="black"/>
<path d="M9.44542 59.4878C9.06073 59.2486 8.69386 58.9742 8.35495 58.6721C7.87104 58.2406 7.1287 58.2831 6.69714 58.7672C6.26558 59.2513 6.30823 59.9935 6.79229 60.425C7.23136 60.8163 7.70667 61.1719 8.20526 61.4821C8.79245 61.8472 9.58792 61.6127 9.88542 60.99C10.14 60.4575 9.9462 59.7992 9.44542 59.4878Z" fill="black"/>
<path d="M19.5279 60.6718H17.9623C17.3139 60.6718 16.7881 61.1975 16.7881 61.846C16.7881 62.4944 17.3139 63.0202 17.9623 63.0202H19.5279C20.1764 63.0202 20.7021 62.4944 20.7021 61.846C20.7021 61.1975 20.1765 60.6718 19.5279 60.6718Z" fill="black"/>
<path d="M25.0074 60.6718H23.4418C22.7934 60.6718 22.2676 61.1975 22.2676 61.846C22.2676 62.4944 22.7934 63.0202 23.4418 63.0202H25.0074C25.6559 63.0202 26.1816 62.4944 26.1816 61.846C26.1816 61.1975 25.6559 60.6718 25.0074 60.6718Z" fill="black"/>
<path d="M30.4869 60.6718H28.9213C28.2729 60.6718 27.7471 61.1975 27.7471 61.846C27.7471 62.4944 28.2729 63.0202 28.9213 63.0202H30.4869C31.1354 63.0202 31.6611 62.4944 31.6611 61.846C31.6611 61.1975 31.1355 60.6718 30.4869 60.6718Z" fill="black"/>
<path d="M6.36816 55.9356C6.1866 55.5203 6.04019 55.0867 5.93301 54.6467C5.77957 54.0167 5.14426 53.6303 4.51426 53.7837C3.88426 53.9372 3.49785 54.5723 3.65129 55.2025C3.79051 55.774 3.98082 56.3375 4.21676 56.8769C4.4866 57.494 5.24598 57.759 5.84207 57.444C6.37832 57.1606 6.61113 56.4909 6.36816 55.9356Z" fill="black"/>
<path d="M14.0486 60.6717C13.5741 60.6717 13.1019 60.6703 12.6298 60.612C11.9858 60.533 11.4001 60.9903 11.3209 61.6339C11.2417 62.2775 11.6991 62.8634 12.3428 62.9428C12.9103 63.0127 13.4781 63.02 14.0487 63.02C14.6972 63.02 15.223 62.4942 15.223 61.8458C15.2228 61.1975 14.697 60.6717 14.0486 60.6717Z" fill="black"/>
<path d="M7.25004 47.4648C7.54707 47.4648 7.84441 47.3528 8.07301 47.128C8.39676 46.8098 8.74988 46.5177 9.12269 46.26C9.65598 45.8911 9.78941 45.1598 9.42051 44.6264C9.0516 44.0933 8.32051 43.9595 7.78691 44.3286C7.30394 44.6627 6.84629 45.0411 6.42691 45.4533C5.6941 46.1734 6.21816 47.4648 7.25004 47.4648Z" fill="black"/>
<path d="M12.2477 44.98C12.6924 44.903 13.1491 44.8639 13.6047 44.8639C14.2531 44.8639 14.7789 44.3383 14.7789 43.6897C14.7789 43.0413 14.2531 42.5155 13.6047 42.5155C13.0152 42.5155 12.4238 42.5661 11.847 42.666C11.2252 42.7736 10.7902 43.3775 10.887 44.0014C10.9866 44.6422 11.608 45.0905 12.2477 44.98Z" fill="black"/>
</svg>
