<svg width="207" height="43" viewBox="0 0 207 43" fill="none" xmlns="http://www.w3.org/2000/svg">
<path d="M58.64 19H60.776V2.2H58.64V19ZM77.3503 19H79.5583V2.2H77.4943L77.5423 15.856L68.2063 2.2H66.0463V19H68.1103L68.0383 5.344L77.3503 19ZM96.1471 19H98.3551V2.2H96.2911L96.3391 15.856L87.0031 2.2H84.8431V19H86.9071L86.8351 5.344L96.1471 19ZM102.848 10.576C102.848 16.72 105.248 19.288 110.384 19.288C115.424 19.288 117.944 16.72 117.944 10.576C117.944 4.432 115.64 1.912 110.384 1.912C105.344 1.912 102.848 4.432 102.848 10.576ZM104.984 10.6C104.984 5.176 106.856 3.64 110.384 3.64C113.912 3.64 115.808 5.272 115.808 10.552C115.808 15.976 113.912 17.56 110.384 17.56C106.856 17.56 104.984 15.904 104.984 10.6ZM119.941 2.2L125.821 19H128.509L134.389 2.2H132.205L127.189 17.056L122.197 2.2H119.941ZM141.228 4.144L144.492 13.768H138.012L141.228 4.144ZM146.268 19H148.524L142.644 2.2H139.956L134.076 19H136.26L137.412 15.568H145.116L146.268 19ZM148.327 2.2V4.024H153.823V19H155.959V4.024H161.455V2.2H148.327ZM164.39 19H166.526V2.2H164.39V19ZM171.004 10.576C171.004 16.72 173.404 19.288 178.54 19.288C183.58 19.288 186.1 16.72 186.1 10.576C186.1 4.432 183.796 1.912 178.54 1.912C173.5 1.912 171.004 4.432 171.004 10.576ZM173.14 10.6C173.14 5.176 175.012 3.64 178.54 3.64C182.068 3.64 183.964 5.272 183.964 10.552C183.964 15.976 182.068 17.56 178.54 17.56C175.012 17.56 173.14 15.904 173.14 10.6ZM201.874 19H204.082V2.2H202.018L202.066 15.856L192.73 2.2H190.57V19H192.634L192.562 5.344L201.874 19Z" fill="#231F20"/>
<path d="M13.704 12.496C13.704 16.096 11.856 17.56 9.024 17.56C6.192 17.56 4.344 16.096 4.344 12.496V2.2H2.208V12.4C2.208 16.936 4.728 19.288 9.024 19.288C13.272 19.288 15.84 16.936 15.84 12.4V2.2H13.704V12.496ZM31.2949 4.888C30.1669 2.992 28.5589 1.912 25.4149 1.912C21.6469 1.912 19.6309 3.808 19.6309 6.568C19.6309 8.968 21.2149 10.528 24.3829 11.248L26.0869 11.632C28.8709 12.256 29.6629 12.952 29.6629 14.68C29.6629 16.528 28.4149 17.632 25.4869 17.632C23.2069 17.632 21.8869 16.816 20.6389 14.968L18.9589 16.024C20.4229 18.472 22.7509 19.288 25.5349 19.288C29.4229 19.288 31.7029 17.584 31.7029 14.464C31.7029 11.824 30.1189 10.408 26.3989 9.616L24.6949 9.256C22.3429 8.752 21.6229 7.744 21.6229 6.472C21.6229 4.816 22.6069 3.568 25.4149 3.568C27.5269 3.568 28.7269 4.312 29.6149 5.944L31.2949 4.888ZM33.4286 2.2V4.024H38.9246V19H41.0606V4.024H46.5566V2.2H33.4286Z" fill="#231F20"/>
<path d="M4.344 2.2H5.344V1.2H4.344V2.2ZM2.208 2.2V1.2H1.208V2.2H2.208ZM15.84 2.2H16.84V1.2H15.84V2.2ZM13.704 2.2V1.2H12.704V2.2H13.704ZM12.704 12.496C12.704 14.1348 12.2848 15.105 11.7189 15.6709C11.1526 16.2372 10.2779 16.56 9.024 16.56V18.56C10.6021 18.56 12.0674 18.1508 13.1331 17.0851C14.1992 16.019 14.704 14.4572 14.704 12.496H12.704ZM9.024 16.56C7.77006 16.56 6.89543 16.2372 6.32911 15.6709C5.76323 15.105 5.344 14.1348 5.344 12.496H3.344C3.344 14.4572 3.84877 16.019 4.91489 17.0851C5.98057 18.1508 7.44594 18.56 9.024 18.56V16.56ZM5.344 12.496V2.2H3.344V12.496H5.344ZM4.344 1.2H2.208V3.2H4.344V1.2ZM1.208 2.2V12.4H3.208V2.2H1.208ZM1.208 12.4C1.208 14.8494 1.89156 16.8603 3.30156 18.2558C4.70955 19.6493 6.69936 20.288 9.024 20.288V18.288C7.05264 18.288 5.63445 17.7507 4.70844 16.8342C3.78444 15.9197 3.208 14.4866 3.208 12.4H1.208ZM9.024 20.288C11.3272 20.288 13.3146 19.6479 14.7266 18.2576C16.1416 16.8643 16.84 14.8545 16.84 12.4H14.84C14.84 14.4815 14.2544 15.9157 13.3234 16.8324C12.3894 17.7521 10.9688 18.288 9.024 18.288V20.288ZM16.84 12.4V2.2H14.84V12.4H16.84ZM15.84 1.2H13.704V3.2H15.84V1.2ZM12.704 2.2V12.496H14.704V2.2H12.704ZM31.2949 4.888L31.827 5.73464L32.6532 5.21533L32.1543 4.37671L31.2949 4.888ZM24.3829 11.248L24.1613 12.2231L24.163 12.2235L24.3829 11.248ZM26.0869 11.632L25.867 12.6075L25.8682 12.6078L26.0869 11.632ZM20.6389 14.968L21.4676 14.4083L20.926 13.6064L20.1067 14.1214L20.6389 14.968ZM18.9589 16.024L18.4267 15.1774L17.5986 15.6979L18.1006 16.5373L18.9589 16.024ZM26.3989 9.616L26.6071 8.63792L26.6056 8.6376L26.3989 9.616ZM24.6949 9.256L24.4853 10.2338L24.4882 10.2344L24.6949 9.256ZM29.6149 5.944L28.7365 6.42195L29.2455 7.35735L30.147 6.79064L29.6149 5.944ZM32.1543 4.37671C31.5228 3.31536 30.7195 2.42304 29.5872 1.80971C28.4634 1.201 27.0986 0.912 25.4149 0.912V2.912C26.8752 2.912 27.8864 3.163 28.6346 3.56829C29.3743 3.96896 29.9389 4.56464 30.4355 5.39929L32.1543 4.37671ZM25.4149 0.912C23.3734 0.912 21.6736 1.42551 20.4667 2.43929C19.24 3.46971 18.6309 4.92757 18.6309 6.568H20.6309C20.6309 5.44843 21.0297 4.57829 21.7531 3.9707C22.4962 3.34649 23.6884 2.912 25.4149 2.912V0.912ZM18.6309 6.568C18.6309 8.01228 19.1182 9.2666 20.1172 10.2505C21.0893 11.2079 22.4746 11.8398 24.1613 12.2231L24.6045 10.2729C23.1231 9.93619 22.1324 9.4281 21.5206 8.82552C20.9356 8.2494 20.6309 7.52372 20.6309 6.568H18.6309ZM24.163 12.2235L25.867 12.6075L26.3067 10.6565L24.6027 10.2725L24.163 12.2235ZM25.8682 12.6078C27.2535 12.9183 27.9268 13.2087 28.2681 13.5013C28.5144 13.7124 28.6629 13.9865 28.6629 14.68H30.6629C30.6629 13.6455 30.4153 12.7076 29.5697 11.9827C28.8189 11.3393 27.7043 10.9697 26.3056 10.6562L25.8682 12.6078ZM28.6629 14.68C28.6629 15.356 28.4501 15.7669 28.074 16.0482C27.6443 16.3695 26.8534 16.632 25.4869 16.632V18.632C27.0483 18.632 28.3454 18.3425 29.2717 17.6498C30.2516 16.9171 30.6629 15.852 30.6629 14.68H28.6629ZM25.4869 16.632C24.47 16.632 23.7507 16.4512 23.1673 16.1221C22.5773 15.7892 22.0402 15.2562 21.4676 14.4083L19.8102 15.5277C20.4855 16.5278 21.2324 17.3268 22.1845 17.8639C23.1431 18.4048 24.2238 18.632 25.4869 18.632V16.632ZM20.1067 14.1214L18.4267 15.1774L19.491 16.8706L21.171 15.8146L20.1067 14.1214ZM18.1006 16.5373C19.8078 19.3919 22.5412 20.288 25.5349 20.288V18.288C22.9606 18.288 21.0379 17.5521 19.8171 15.5107L18.1006 16.5373ZM25.5349 20.288C27.606 20.288 29.395 19.8367 30.6883 18.8373C32.0196 17.8086 32.7029 16.2934 32.7029 14.464H30.7029C30.7029 15.7546 30.2461 16.6514 29.4654 17.2547C28.6467 17.8873 27.3517 18.288 25.5349 18.288V20.288ZM32.7029 14.464C32.7029 12.9166 32.2251 11.6134 31.1187 10.6072C30.0629 9.64701 28.53 9.04732 26.6071 8.63792L26.1906 10.5941C27.9877 10.9767 29.1069 11.481 29.7731 12.0868C30.3887 12.6466 30.7029 13.3714 30.7029 14.464H32.7029ZM26.6056 8.6376L24.9016 8.2776L24.4882 10.2344L26.1922 10.5944L26.6056 8.6376ZM24.9044 8.2782C23.8224 8.04634 23.2665 7.72741 22.984 7.44489C22.7343 7.19517 22.6229 6.89971 22.6229 6.472H20.6229C20.6229 7.31629 20.8715 8.16083 21.5698 8.85911C22.2352 9.52459 23.2153 9.96166 24.4853 10.2338L24.9044 8.2782ZM22.6229 6.472C22.6229 5.84554 22.802 5.43181 23.122 5.15369C23.4667 4.85398 24.1389 4.568 25.4149 4.568V2.568C23.8829 2.568 22.659 2.90602 21.8098 3.64431C20.9357 4.40419 20.6229 5.44246 20.6229 6.472H22.6229ZM25.4149 4.568C26.3556 4.568 26.9956 4.73368 27.4736 5.00986C27.9469 5.28335 28.3537 5.71845 28.7365 6.42195L30.4933 5.46605C29.9881 4.53755 29.3508 3.78464 28.4742 3.27813C27.6022 2.77432 26.5861 2.568 25.4149 2.568V4.568ZM30.147 6.79064L31.827 5.73464L30.7627 4.04136L29.0827 5.09736L30.147 6.79064ZM33.4286 2.2V1.2H32.4286V2.2H33.4286ZM33.4286 4.024H32.4286V5.024H33.4286V4.024ZM38.9246 4.024H39.9246V3.024H38.9246V4.024ZM38.9246 19H37.9246V20H38.9246V19ZM41.0606 19V20H42.0606V19H41.0606ZM41.0606 4.024V3.024H40.0606V4.024H41.0606ZM46.5566 4.024V5.024H47.5566V4.024H46.5566ZM46.5566 2.2H47.5566V1.2H46.5566V2.2ZM32.4286 2.2V4.024H34.4286V2.2H32.4286ZM33.4286 5.024H38.9246V3.024H33.4286V5.024ZM37.9246 4.024V19H39.9246V4.024H37.9246ZM38.9246 20H41.0606V18H38.9246V20ZM42.0606 19V4.024H40.0606V19H42.0606ZM41.0606 5.024H46.5566V3.024H41.0606V5.024ZM47.5566 4.024V2.2H45.5566V4.024H47.5566ZM46.5566 1.2H33.4286V3.2H46.5566V1.2Z" fill="#241F20"/>
<path d="M108.582 35H111.738C114.15 35 115.386 33.644 115.386 30.752C115.386 27.848 114.198 26.6 111.75 26.6H108.582V35ZM111.702 34.088H109.65V27.512H111.786C113.394 27.512 114.318 28.34 114.318 30.788C114.318 33.296 113.298 34.088 111.702 34.088ZM117.245 27.344C117.245 27.788 117.509 28.028 117.953 28.028C118.397 28.028 118.661 27.788 118.661 27.344C118.661 26.9 118.397 26.672 117.953 26.672C117.509 26.672 117.245 26.9 117.245 27.344ZM117.437 29.156V35H118.469V29.156H117.437ZM124.821 31.964C124.821 33.524 124.053 34.148 123.021 34.148C121.893 34.148 121.329 33.476 121.329 31.976C121.329 30.5 121.869 29.828 123.021 29.828C124.041 29.828 124.821 30.44 124.821 31.964ZM125.853 29.156H124.965L124.857 30.104C124.473 29.372 123.753 29.012 122.793 29.012C121.173 29.012 120.297 30.056 120.297 31.988C120.297 33.956 121.221 34.988 122.781 34.988C123.729 34.988 124.437 34.628 124.821 33.884V34.94C124.821 36.248 124.029 36.752 122.913 36.752C122.097 36.752 121.533 36.476 121.137 35.684L120.393 36.212C120.885 37.256 121.761 37.592 122.913 37.592C124.629 37.592 125.853 36.788 125.853 34.832V29.156ZM127.921 27.344C127.921 27.788 128.185 28.028 128.629 28.028C129.073 28.028 129.337 27.788 129.337 27.344C129.337 26.9 129.073 26.672 128.629 26.672C128.185 26.672 127.921 26.9 127.921 27.344ZM128.113 29.156V35H129.145V29.156H128.113ZM130.493 29.156V29.96H131.525V33.056C131.525 34.532 132.245 35.144 133.397 35.144C133.733 35.144 133.973 35.12 134.393 34.976L134.225 34.136C133.997 34.208 133.817 34.256 133.517 34.256C132.941 34.256 132.533 34.052 132.533 33.02V29.96H134.225V29.156H132.533V27.44H131.525V29.156H130.493ZM137.577 34.316C136.713 34.316 136.341 33.956 136.341 33.356C136.341 32.588 136.797 32.228 137.913 32.228H139.413V32.252C139.401 33.56 138.657 34.316 137.577 34.316ZM139.473 33.932L139.557 35H140.445V31.424C140.445 29.6 139.437 29.012 137.937 29.012C136.785 29.012 136.017 29.348 135.573 29.996L136.149 30.62C136.485 30.164 136.989 29.84 137.841 29.84C138.873 29.84 139.389 30.224 139.413 31.436H137.901C135.993 31.436 135.333 32.312 135.333 33.392C135.333 34.52 136.173 35.144 137.349 35.144C138.381 35.144 139.101 34.676 139.473 33.932ZM143.652 26.6H142.62V35H143.652V26.6ZM152.325 35.144C153.789 35.144 154.845 34.664 155.529 33.416L154.737 32.876C154.185 33.92 153.417 34.28 152.325 34.28C150.597 34.28 149.613 33.488 149.613 30.776C149.613 28.052 150.597 27.32 152.325 27.32C153.393 27.32 154.089 27.632 154.545 28.604L155.385 28.04C154.809 26.888 153.825 26.456 152.325 26.456C149.829 26.456 148.545 27.656 148.545 30.788C148.545 33.92 149.829 35.144 152.325 35.144ZM156.701 30.788C156.701 33.86 157.901 35.144 160.469 35.144C162.989 35.144 164.249 33.86 164.249 30.788C164.249 27.716 163.097 26.456 160.469 26.456C157.949 26.456 156.701 27.716 156.701 30.788ZM157.769 30.8C157.769 28.088 158.705 27.32 160.469 27.32C162.233 27.32 163.181 28.136 163.181 30.776C163.181 33.488 162.233 34.28 160.469 34.28C158.705 34.28 157.769 33.452 157.769 30.8ZM166.484 35H172.676V34.088H167.528V31.244H171.932V30.308H167.528V27.512H172.556V26.6H166.484V35ZM179.676 27.572L181.308 32.384H178.068L179.676 27.572ZM182.196 35H183.324L180.384 26.6H179.04L176.1 35H177.192L177.768 33.284H181.62L182.196 35ZM184.765 35H185.833V32.06H187.993C189.961 32.06 190.993 31.088 190.993 29.24C190.993 27.56 190.045 26.6 188.113 26.6H184.765V35ZM188.125 27.512C189.337 27.512 189.925 28.148 189.925 29.276C189.925 30.524 189.241 31.148 188.113 31.148H185.833V27.512H188.125ZM194.841 27.572L196.473 32.384H193.233L194.841 27.572ZM197.361 35H198.489L195.549 26.6H194.205L191.265 35H192.357L192.933 33.284H196.785L197.361 35ZM203.313 35.144C204.777 35.144 205.833 34.664 206.517 33.416L205.725 32.876C205.173 33.92 204.405 34.28 203.313 34.28C201.585 34.28 200.601 33.488 200.601 30.776C200.601 28.052 201.585 27.32 203.313 27.32C204.381 27.32 205.077 27.632 205.533 28.604L206.373 28.04C205.797 26.888 204.813 26.456 203.313 26.456C200.817 26.456 199.533 27.656 199.533 30.788C199.533 33.92 200.817 35.144 203.313 35.144Z" fill="#231F20"/>
</svg>
