<svg width="80" height="80" viewBox="0 0 80 80" fill="none" xmlns="http://www.w3.org/2000/svg">
<path fill-rule="evenodd" clip-rule="evenodd" d="M74.6881 19.4769H73.0157C77.179 14.833 76.9206 7.72721 72.4311 3.39795C67.9416 -0.931315 60.8311 -0.931315 56.3415 3.39795C51.852 7.72721 51.5937 14.833 55.7569 19.4769H39.9195V6.59963C39.9195 5.88844 39.343 5.31191 38.6318 5.31191H33.4809C32.7697 5.31191 32.1932 5.88844 32.1932 6.59963V19.4769H30.9054V1.44873C30.9054 0.737536 30.3289 0.161001 29.6177 0.161001H24.4668C23.7556 0.161001 23.1791 0.737536 23.1791 1.44873V19.4769H21.8913V10.4628C21.8913 9.75162 21.3148 9.17509 20.6036 9.17509H15.4527C14.7415 9.17509 14.165 9.75162 14.165 10.4628V19.4769H5.15091C2.30746 19.4801 0.00319349 21.7844 0 24.6278V63.2596C0.00319349 66.103 2.30746 68.4073 5.15091 68.4105H31.6942L29.9767 73.5614H25.7545C25.0433 73.5614 24.4668 74.1379 24.4668 74.8491V77.4246H11.5895C10.8783 77.4246 10.3018 78.0011 10.3018 78.7123C10.3018 79.4235 10.8783 80 11.5895 80H68.2495C68.9607 80 69.5372 79.4235 69.5372 78.7123C69.5372 78.0011 68.9607 77.4246 68.2495 77.4246H55.3722V74.8491C55.3722 74.1379 54.7957 73.5614 54.0845 73.5614H49.8624L48.1449 68.4105H74.6881C77.5316 68.4073 79.8358 66.103 79.839 63.2596V24.6278C79.8358 21.7844 77.5316 19.4801 74.6881 19.4769ZM65.674 2.82981C69.6262 3.40653 72.7303 6.51063 73.307 10.4628H65.674V2.82981ZM73.307 13.0383H64.9191L58.9907 18.9666C61.5364 20.8732 64.8987 21.2961 67.8371 20.0793C70.7755 18.8625 72.8545 16.1863 73.307 13.0383ZM55.3722 11.7505C55.3786 7.2722 58.667 3.47546 63.0986 2.82981V11.2177L57.1702 17.1461C56.0013 15.5903 55.3702 13.6965 55.3722 11.7505ZM37.3441 7.88736H34.7686V32.3542H37.3441V7.88736ZM30.9054 22.0523H32.1932V32.3542H30.9054V22.0523ZM28.33 2.73645H25.7545V32.3542H28.33V2.73645ZM21.8913 22.0523H23.1791V32.3542H21.8913V22.0523ZM19.3159 11.7505H16.7404V32.3542H19.3159V11.7505ZM52.7968 76.1369V77.4246H27.0423V76.1369H52.7968ZM34.4097 68.4105L32.6922 73.5614H47.1469L45.4294 68.4105H34.4097ZM77.2636 63.2596C77.2617 64.6812 76.1097 65.8332 74.6881 65.835H5.15091C3.72929 65.8332 2.57732 64.6812 2.57545 63.2596V60.6841H77.2636V63.2596ZM2.57545 24.6278V58.1087H77.2636V24.6278C77.2617 23.2062 76.1097 22.0542 74.6881 22.0523H69.6853C66.3613 23.7693 62.4114 23.7693 59.0873 22.0523H39.9195V32.3542H41.2072V24.6278C41.2072 23.9166 41.7838 23.3401 42.495 23.3401H47.6459C48.3571 23.3401 48.9336 23.9166 48.9336 24.6278V33.6419C48.9336 34.3531 48.3571 34.9296 47.6459 34.9296H6.43863C5.72744 34.9296 5.15091 34.3531 5.15091 33.6419V24.6278C5.15091 23.9166 5.72744 23.3401 6.43863 23.3401H11.5895C12.3007 23.3401 12.8773 23.9166 12.8773 24.6278V32.3542H14.165V22.0523H5.15091C3.72929 22.0542 2.57732 23.2062 2.57545 24.6278ZM10.3018 25.9155V32.3542H7.72636V25.9155H10.3018ZM43.7827 25.9155V32.3542H46.3581V25.9155H43.7827Z" fill="black"/>
<path d="M14.165 61.9718H6.43861C5.72741 61.9718 5.15088 62.5483 5.15088 63.2595C5.15088 63.9707 5.72741 64.5473 6.43861 64.5473H14.165C14.8762 64.5473 15.4527 63.9707 15.4527 63.2595C15.4527 62.5483 14.8762 61.9718 14.165 61.9718Z" fill="black"/>
<path d="M19.3157 61.9718H18.028C17.3168 61.9718 16.7402 62.5483 16.7402 63.2595C16.7402 63.9707 17.3168 64.5473 18.028 64.5473H19.3157C20.0269 64.5473 20.6034 63.9707 20.6034 63.2595C20.6034 62.5483 20.0269 61.9718 19.3157 61.9718Z" fill="black"/>
<path d="M54.0847 32.3542C54.4263 32.3546 54.754 32.2189 54.9953 31.977L59.7689 27.2033H70.8251C71.5363 27.2033 72.1129 26.6267 72.1129 25.9155C72.1129 25.2043 71.5363 24.6278 70.8251 24.6278H59.2356C58.8941 24.6278 58.5665 24.7635 58.325 25.005L53.1741 30.1559C52.8058 30.5241 52.6956 31.078 52.8949 31.5592C53.0943 32.0404 53.5638 32.3542 54.0847 32.3542Z" fill="black"/>
<path fill-rule="evenodd" clip-rule="evenodd" d="M70.8248 46.5191C69.4476 46.5201 68.175 47.2542 67.4847 48.4458L54.0038 40.5811C53.6272 38.7712 52.021 37.4818 50.1725 37.5053C48.324 37.5289 46.7512 38.8587 46.4207 40.6776L32.8545 50.8523C32.1034 49.6955 30.7921 49.0275 29.4148 49.0999C28.0375 49.1723 26.8034 49.9741 26.1777 51.2032L12.7692 45.6161C12.3326 43.7954 10.6537 42.5496 8.78461 42.6593C6.91554 42.7689 5.39389 44.2026 5.17317 46.0618C4.95245 47.921 6.09615 49.6711 7.88759 50.2153C9.67903 50.7596 11.6029 49.9414 12.4537 48.2736L25.8622 53.8607C26.2888 55.6364 27.9008 56.8705 29.7262 56.8192C31.5517 56.7679 33.0917 55.4451 33.4179 53.6483L46.9841 43.4736C47.7149 44.5994 48.9782 45.2646 50.32 45.2302C51.6617 45.1957 52.8892 44.4665 53.5612 43.3046L67.0421 51.1694C67.4559 53.1578 69.3387 54.4862 71.3508 54.2094C73.3629 53.9325 74.817 52.1449 74.6784 50.1186C74.5398 48.0923 72.8558 46.5194 70.8248 46.5191ZM10.3016 46.5255C10.2998 47.2379 9.7214 47.8141 9.00906 47.8132C8.29672 47.8124 7.71973 47.2346 7.71973 46.5223C7.71973 45.81 8.29672 45.2322 9.00906 45.2314C9.7214 45.2305 10.2998 45.8067 10.3016 46.5191V46.5255ZM28.3298 52.9577C28.3308 53.6685 28.9067 54.2445 29.6175 54.2454C30.3279 54.2454 30.904 53.6702 30.9052 52.9599C30.9064 52.2495 30.3321 51.6724 29.6218 51.67C28.9114 51.6676 28.3333 52.2409 28.3298 52.9513V52.9577ZM50.2211 42.6559C49.5099 42.6559 48.9334 42.0794 48.9334 41.3682C48.9334 40.657 49.5099 40.0805 50.2211 40.0805C50.9323 40.0805 51.5089 40.657 51.5089 41.3682C51.5079 42.079 50.9319 42.6549 50.2211 42.6559ZM69.537 50.3823C69.537 51.0935 70.1136 51.67 70.8248 51.67C71.5355 51.669 72.1115 51.0931 72.1125 50.3823C72.1125 49.6711 71.5359 49.0945 70.8248 49.0945C70.1136 49.0945 69.537 49.6711 69.537 50.3823Z" fill="black"/>
<path d="M60.523 54.2455H51.5089C50.7977 54.2455 50.2212 54.822 50.2212 55.5332C50.2212 56.2444 50.7977 56.8209 51.5089 56.8209H60.523C61.2342 56.8209 61.8107 56.2444 61.8107 55.5332C61.8107 54.822 61.2342 54.2455 60.523 54.2455Z" fill="black"/>
<path d="M60.523 50.3823H56.6598C55.9486 50.3823 55.3721 50.9589 55.3721 51.6701C55.3721 52.3812 55.9486 52.9578 56.6598 52.9578H60.523C61.2342 52.9578 61.8107 52.3812 61.8107 51.6701C61.8107 50.9589 61.2342 50.3823 60.523 50.3823Z" fill="black"/>
<path d="M6.43861 38.7927H20.6036C21.3148 38.7927 21.8913 38.2162 21.8913 37.505C21.8913 36.7938 21.3148 36.2173 20.6036 36.2173H6.43861C5.72741 36.2173 5.15088 36.7938 5.15088 37.505C5.15088 38.2162 5.72741 38.7927 6.43861 38.7927Z" fill="black"/>
<path d="M24.4669 38.7927H25.7547C26.4658 38.7927 27.0424 38.2162 27.0424 37.505C27.0424 36.7938 26.4658 36.2173 25.7547 36.2173H24.4669C23.7557 36.2173 23.1792 36.7938 23.1792 37.505C23.1792 38.2162 23.7557 38.7927 24.4669 38.7927Z" fill="black"/>
</svg>
