<svg width="80" height="80" viewBox="0 0 80 80" fill="none" xmlns="http://www.w3.org/2000/svg">
<path d="M50.6668 34.6667H57.3335C58.0699 34.6667 58.6668 34.0697 58.6668 33.3333C58.6668 32.597 58.0699 32 57.3335 32H50.6668C49.9304 32 49.3335 32.597 49.3335 33.3333C49.3335 34.0697 49.9304 34.6667 50.6668 34.6667Z" fill="black"/>
<path fill-rule="evenodd" clip-rule="evenodd" d="M77.3333 33.3333C77.3333 32.5969 77.9303 32 78.6667 32C79.403 32 80 32.5969 80 33.3333V78.6666C80 79.403 79.403 80 78.6667 80H9.33333C4.18111 79.9941 0.00587818 75.8188 0 70.6666V28C0 22.8453 4.17868 18.6666 9.33333 18.6666C14.488 18.6666 18.6667 22.8453 18.6667 28V32H22.6667C23.403 32 24 32.5969 24 33.3333C24 34.0697 23.403 34.6666 22.6667 34.6666H18.6667V70.6666C18.6667 71.403 18.0697 72 17.3333 72C16.597 72 16 71.403 16 70.6666C16 66.9847 13.0152 64 9.33333 64C5.65143 64 2.66667 66.9847 2.66667 70.6666C2.66667 74.3485 5.65143 77.3333 9.33333 77.3333H77.3333V33.3333ZM9.33333 21.3333C5.65143 21.3333 2.66667 24.3181 2.66667 28V64.1333C4.42052 62.3386 6.82393 61.3268 9.33333 61.3268C11.8427 61.3268 14.2461 62.3386 16 64.1333V28C16 24.3181 13.0152 21.3333 9.33333 21.3333Z" fill="black"/>
<path fill-rule="evenodd" clip-rule="evenodd" d="M63.5615 53.8293L61.4282 48.496C61.3748 48.3539 61.3464 48.2037 61.3442 48.052C61.3435 48.0433 61.3412 48.0355 61.3388 48.0277C61.3362 48.0188 61.3335 48.01 61.3335 48V6.66667C61.3335 2.98477 64.3183 0 68.0002 0C71.6821 0 74.6668 2.98477 74.6668 6.66667V20C74.6668 20.7364 74.0699 21.3333 73.3335 21.3333C72.5971 21.3333 72.0002 20.7364 72.0002 20V16H69.3335V46.6667H72.0002V25.3333C72.0002 24.597 72.5971 24 73.3335 24C74.0699 24 74.6668 24.597 74.6668 25.3333V48C74.6668 48.006 74.6657 48.0116 74.6642 48.0171L74.6613 48.0263C74.6587 48.0343 74.6562 48.0422 74.6562 48.0507C74.6541 48.2029 74.6257 48.3535 74.5722 48.496L72.4388 53.8293L69.2388 61.8293C69.0368 62.3365 68.5461 62.6692 68.0002 62.6692C67.4543 62.6692 66.9635 62.3365 66.7615 61.8293L63.5615 53.8293ZM68.0002 57.744L69.2308 54.6667H66.7695L68.0002 57.744ZM65.7028 52L64.6362 49.3333H71.3642L70.2975 52H65.7028ZM64.0002 46.6667H66.6668V16H64.0002V46.6667ZM64.0002 13.3333V10.6667H72.0002V13.3333H64.0002ZM68.0002 2.66667C65.791 2.66667 64.0002 4.45753 64.0002 6.66667V8H72.0002V6.66667C72.0002 4.45753 70.2093 2.66667 68.0002 2.66667Z" fill="black"/>
<path fill-rule="evenodd" clip-rule="evenodd" d="M29.3334 26.908V26.2666C24.7446 22.1536 24.0201 15.232 27.6578 10.2579C31.2954 5.28369 38.111 3.87627 43.4214 7.00264C44.0558 7.37709 44.2665 8.19492 43.8921 8.82931C43.5176 9.4637 42.6998 9.67443 42.0654 9.29998C37.8498 6.80206 32.4199 7.99348 29.6374 12.0269C26.8549 16.0604 27.6693 21.5594 31.5014 24.6133C31.8167 24.8664 32.0002 25.249 32.0001 25.6533V26.6666H33.1774L32.0081 16.1466C31.958 15.6948 32.1415 15.2485 32.4951 14.9627C32.8486 14.6769 33.3234 14.5909 33.7548 14.7346L37.3334 15.928L40.9121 14.7346C41.3434 14.5909 41.8182 14.6769 42.1718 14.9627C42.5253 15.2485 42.7089 15.6948 42.6588 16.1466L41.4894 26.6666H42.6668V25.6493C42.6667 25.245 42.8501 24.8624 43.1654 24.6093C46.7947 21.716 47.7337 16.5891 45.3654 12.5973C45.1232 12.1869 45.1183 11.6785 45.3526 11.2635C45.5869 10.8486 46.0247 10.5901 46.5013 10.5855C46.9778 10.581 47.4205 10.8309 47.6628 11.2413C50.5784 16.1625 49.6023 22.4592 45.3334 26.2666V26.912C46.9309 27.4685 48.0013 28.975 48.0013 30.6666C48.0013 32.3583 46.9309 33.8648 45.3334 34.4213V34.6666C45.3281 38.8113 42.1607 42.2669 38.0321 42.632C36.1398 45.1939 33.416 47.0184 30.3268 47.7933L28.2934 48.3013C26.3802 48.781 25.1243 50.6112 25.3651 52.5689C25.6058 54.5266 27.2676 55.9981 29.2401 56H32.0001C32.7365 56 33.3334 56.5969 33.3334 57.3333C33.3334 58.0697 32.7365 58.6666 32.0001 58.6666H29.2401C25.9129 58.6755 23.1036 56.1974 22.6972 52.8951C22.2908 49.5928 24.4154 46.5075 27.6454 45.7093L29.6788 45.2C31.6381 44.7123 33.4266 43.6979 34.8508 42.2666C31.5635 41.1904 29.3385 38.1256 29.3334 34.6666V34.4173C27.7359 33.8608 26.6655 32.3543 26.6655 30.6626C26.6655 28.971 27.7359 27.4645 29.3334 26.908ZM32.0001 34.6666C32.0001 37.6122 34.3879 40 37.3334 40C40.2789 40 42.6668 37.6122 42.6668 34.6666H32.0001ZM34.8894 17.924L36.9121 18.5986C37.1856 18.6897 37.4812 18.6897 37.7548 18.5986L39.7774 17.924L38.8068 26.6666H35.8668L34.8894 17.924ZM44.0001 29.3333H34.6668H30.6668C29.9304 29.3333 29.3334 29.9303 29.3334 30.6666C29.3334 31.403 29.9304 32 30.6668 32H44.0001C44.7365 32 45.3334 31.403 45.3334 30.6666C45.3334 29.9303 44.7365 29.3333 44.0001 29.3333Z" fill="black"/>
<circle cx="21.3333" cy="17.3333" r="1.33333" fill="black"/>
<circle cx="53.3333" cy="17.3333" r="1.33333" fill="black"/>
<circle cx="37.3333" cy="1.33333" r="1.33333" fill="black"/>
<path d="M22.8109 10.4881C23.2779 10.7577 23.8614 10.7195 24.2893 10.3912C24.7171 10.0629 24.9051 9.50921 24.7655 8.9883C24.6259 8.46738 24.1863 8.08184 23.6516 8.01145C23.117 7.94106 22.5925 8.19968 22.3229 8.66672C21.9547 9.30442 22.1732 10.1199 22.8109 10.4881Z" fill="black"/>
<path d="M50.5228 26.4881C50.9898 26.7577 51.5733 26.7195 52.0012 26.3912C52.429 26.0629 52.617 25.5092 52.4774 24.9883C52.3378 24.4674 51.8982 24.0818 51.3636 24.0114C50.8289 23.9411 50.3044 24.1997 50.0348 24.6667C49.6666 25.3044 49.8851 26.1199 50.5228 26.4881Z" fill="black"/>
<circle cx="45.3332" cy="3.47797" r="1.33333" transform="rotate(-15 45.3332 3.47797)" fill="black"/>
<path d="M51.856 10.488C52.323 10.2183 52.5816 9.69391 52.5112 9.15924C52.4408 8.62456 52.0553 8.18494 51.5344 8.04537C51.0135 7.9058 50.4598 8.09376 50.1315 8.52162C49.8032 8.94947 49.765 9.53295 50.0346 9.99998C50.4028 10.6377 51.2182 10.8562 51.856 10.488Z" fill="black"/>
<path d="M24.6321 24.6667C24.3625 24.1997 23.8381 23.9411 23.3034 24.0114C22.7687 24.0818 22.3291 24.4674 22.1895 24.9883C22.05 25.5092 22.2379 26.0629 22.6658 26.3912C23.0936 26.7195 23.6771 26.7577 24.1441 26.4881C24.7818 26.1199 25.0003 25.3044 24.6321 24.6667Z" fill="black"/>
<path d="M30 4.63203C30.467 4.36239 30.7257 3.83796 30.6553 3.30328C30.5849 2.76861 30.1993 2.32898 29.6784 2.18941C29.1575 2.04984 28.6038 2.23781 28.2755 2.66566C27.9472 3.09352 27.909 3.677 28.1787 4.14403C28.5469 4.78172 29.3623 5.0002 30 4.63203Z" fill="black"/>
<path d="M43.9999 69.3334H49.3332C50.0696 69.3334 50.6665 68.7364 50.6665 68V65.7587C51.1191 65.5453 51.5535 65.2951 51.9652 65.0107L53.9039 66.1307C54.5416 66.4989 55.357 66.2804 55.7252 65.6427L58.3919 61.024C58.76 60.3863 58.5416 59.5709 57.9039 59.2027L55.9679 58.084C55.9892 57.832 55.9999 57.5827 55.9999 57.3334C55.9999 57.084 55.9892 56.8347 55.9679 56.5827L57.9039 55.464C58.5416 55.0958 58.76 54.2804 58.3919 53.6427L55.7252 49.024C55.357 48.3863 54.5416 48.1679 53.9039 48.536L51.9652 49.656C51.5535 49.3717 51.1191 49.1215 50.6665 48.908V46.6667C50.6665 45.9303 50.0696 45.3334 49.3332 45.3334H43.9999C43.2635 45.3334 42.6665 45.9303 42.6665 46.6667V48.908C42.2139 49.1215 41.7796 49.3717 41.3679 49.656L39.4292 48.536C38.7915 48.1679 37.9761 48.3863 37.6079 49.024L34.9412 53.6427C34.573 54.2804 34.7915 55.0958 35.4292 55.464L37.3652 56.5827C37.3439 56.8347 37.3332 57.084 37.3332 57.3334C37.3332 57.5827 37.3439 57.832 37.3652 58.084L35.4292 59.2027C35.0133 59.4392 34.7559 59.8804 34.7549 60.3589C34.7538 60.8373 35.0092 61.2797 35.4241 61.518C35.839 61.7563 36.3498 61.754 36.7625 61.512L39.4665 59.9467C39.9554 59.6648 40.2138 59.1057 40.1119 58.5507C39.9554 57.7467 39.9554 56.9201 40.1119 56.116C40.2138 55.561 39.9554 55.0019 39.4665 54.72L37.9119 53.8214L39.2452 51.512L40.7999 52.4107C41.2893 52.6933 41.9037 52.6367 42.3332 52.2694C42.9549 51.7386 43.669 51.3269 44.4399 51.0547C44.974 50.868 45.3321 50.3645 45.3332 49.7987V48H47.9999V49.7987C48.0002 50.3631 48.3559 50.8662 48.8879 51.0547C49.6587 51.3269 50.3728 51.7386 50.9945 52.2694C51.424 52.6367 52.0385 52.6933 52.5279 52.4107L54.0825 51.512L55.4159 53.8214L53.8665 54.72C53.3777 55.0019 53.1192 55.561 53.2212 56.116C53.3777 56.9201 53.3777 57.7467 53.2212 58.5507C53.1192 59.1057 53.3777 59.6648 53.8665 59.9467L55.4212 60.8454L54.0879 63.1547L52.5332 62.256C52.0438 61.9734 51.4294 62.0301 50.9999 62.3974C50.3782 62.9281 49.664 63.3399 48.8932 63.612C48.3612 63.8006 48.0055 64.3036 48.0052 64.868V66.6667H45.3332V64.868C45.3329 64.3036 44.9772 63.8006 44.4452 63.612C43.6744 63.3399 42.9603 62.9281 42.3385 62.3974C41.909 62.0301 41.2946 61.9734 40.8052 62.256L38.0959 63.8214C37.6799 64.0579 37.4226 64.4991 37.4216 64.9775C37.4205 65.456 37.6759 65.8983 38.0908 66.1366C38.5057 66.375 39.0164 66.3727 39.4292 66.1307L41.3679 65.0107C41.7796 65.2951 42.2139 65.5453 42.6665 65.7587V68C42.6665 68.7364 43.2635 69.3334 43.9999 69.3334Z" fill="black"/>
<path fill-rule="evenodd" clip-rule="evenodd" d="M46.6665 53.3334C48.8756 53.3334 50.6665 55.1242 50.6665 57.3334C50.6665 59.5425 48.8756 61.3334 46.6665 61.3334C44.4574 61.3334 42.6665 59.5425 42.6665 57.3334C42.6665 55.1242 44.4574 53.3334 46.6665 53.3334ZM46.6665 56C45.9301 56 45.3332 56.597 45.3332 57.3334C45.3332 58.0698 45.9301 58.6667 46.6665 58.6667C47.4029 58.6667 47.9998 58.0698 47.9998 57.3334C47.9998 56.597 47.4029 56 46.6665 56Z" fill="black"/>
<path d="M47.9998 74.6667H63.9998C66.9454 74.6667 69.3332 72.2789 69.3332 69.3334V66.6667C69.3332 65.9303 68.7362 65.3334 67.9998 65.3334C67.2635 65.3334 66.6665 65.9303 66.6665 66.6667V69.3334C66.6665 70.8061 65.4726 72 63.9998 72H47.9998C47.2635 72 46.6665 72.597 46.6665 73.3334C46.6665 74.0698 47.2635 74.6667 47.9998 74.6667Z" fill="black"/>
<path fill-rule="evenodd" clip-rule="evenodd" d="M28 73.3334C25.7909 73.3334 24 71.5425 24 69.3334C24 67.1242 25.7909 65.3334 28 65.3334C30.2091 65.3334 32 67.1242 32 69.3334C32 71.5425 30.2091 73.3334 28 73.3334ZM28 70.6667C28.7364 70.6667 29.3333 70.0698 29.3333 69.3334C29.3333 68.597 28.7364 68 28 68C27.2636 68 26.6667 68.597 26.6667 69.3334C26.6667 70.0698 27.2636 70.6667 28 70.6667Z" fill="black"/>
</svg>
